<svg xmlns="http://www.w3.org/2000/svg" xmlns:xlink="http://www.w3.org/1999/xlink" width="500" zoomAndPan="magnify" viewBox="0 0 375 374.999991" height="500" preserveAspectRatio="xMidYMid meet" version="1.0"><defs><clipPath id="id1"><path d="M 5 8 L 76 8 L 76 77 L 5 77 Z M 5 8 " clip-rule="nonzero"/></clipPath><clipPath id="id2"><path d="M 0 17.800781 L 61.214844 0 L 80.902344 67.695312 L 19.6875 85.496094 Z M 0 17.800781 " clip-rule="nonzero"/></clipPath><clipPath id="id3"><path d="M 0 17.800781 L 61.214844 0 L 80.902344 67.695312 L 19.6875 85.496094 Z M 0 17.800781 " clip-rule="nonzero"/></clipPath><clipPath id="id4"><path d="M 0 17.800781 L 61.214844 0 L 80.902344 67.695312 L 19.6875 85.496094 Z M 0 17.800781 " clip-rule="nonzero"/></clipPath><clipPath id="id5"><path d="M 5 8 L 66 8 L 66 69 L 5 69 Z M 5 8 " clip-rule="nonzero"/></clipPath><clipPath id="id6"><path d="M 0 17.800781 L 61.214844 0 L 80.902344 67.695312 L 19.6875 85.496094 Z M 0 17.800781 " clip-rule="nonzero"/></clipPath><clipPath id="id7"><path d="M 0 17.800781 L 61.214844 0 L 80.902344 67.695312 L 19.6875 85.496094 Z M 0 17.800781 " clip-rule="nonzero"/></clipPath><clipPath id="id8"><path d="M 0 17.800781 L 61.214844 0 L 80.902344 67.695312 L 19.6875 85.496094 Z M 0 17.800781 " clip-rule="nonzero"/></clipPath><clipPath id="id9"><path d="M 17 19 L 64 19 L 64 67 L 17 67 Z M 17 19 " clip-rule="nonzero"/></clipPath><clipPath id="id10"><path d="M 0 17.800781 L 61.214844 0 L 80.902344 67.695312 L 19.6875 85.496094 Z M 0 17.800781 " clip-rule="nonzero"/></clipPath><clipPath id="id11"><path d="M 0 17.800781 L 61.214844 0 L 80.902344 67.695312 L 19.6875 85.496094 Z M 0 17.800781 " clip-rule="nonzero"/></clipPath><clipPath id="id12"><path d="M 0 17.800781 L 61.214844 0 L 80.902344 67.695312 L 19.6875 85.496094 Z M 0 17.800781 " clip-rule="nonzero"/></clipPath><clipPath id="id13"><path d="M 39 16 L 76 16 L 76 51 L 39 51 Z M 39 16 " clip-rule="nonzero"/></clipPath><clipPath id="id14"><path d="M 0 17.800781 L 61.214844 0 L 80.902344 67.695312 L 19.6875 85.496094 Z M 0 17.800781 " clip-rule="nonzero"/></clipPath><clipPath id="id15"><path d="M 0 17.800781 L 61.214844 0 L 80.902344 67.695312 L 19.6875 85.496094 Z M 0 17.800781 " clip-rule="nonzero"/></clipPath><clipPath id="id16"><path d="M 0 17.800781 L 61.214844 0 L 80.902344 67.695312 L 19.6875 85.496094 Z M 0 17.800781 " clip-rule="nonzero"/></clipPath><clipPath id="id17"><path d="M 50 30 L 68 30 L 68 45 L 50 45 Z M 50 30 " clip-rule="nonzero"/></clipPath><clipPath id="id18"><path d="M 0 17.800781 L 61.214844 0 L 80.902344 67.695312 L 19.6875 85.496094 Z M 0 17.800781 " clip-rule="nonzero"/></clipPath><clipPath id="id19"><path d="M 0 17.800781 L 61.214844 0 L 80.902344 67.695312 L 19.6875 85.496094 Z M 0 17.800781 " clip-rule="nonzero"/></clipPath><clipPath id="id20"><path d="M 0 17.800781 L 61.214844 0 L 80.902344 67.695312 L 19.6875 85.496094 Z M 0 17.800781 " clip-rule="nonzero"/></clipPath><clipPath id="id21"><path d="M 48 32 L 70 32 L 70 43 L 48 43 Z M 48 32 " clip-rule="nonzero"/></clipPath><clipPath id="id22"><path d="M 0 17.800781 L 61.214844 0 L 80.902344 67.695312 L 19.6875 85.496094 Z M 0 17.800781 " clip-rule="nonzero"/></clipPath><clipPath id="id23"><path d="M 0 17.800781 L 61.214844 0 L 80.902344 67.695312 L 19.6875 85.496094 Z M 0 17.800781 " clip-rule="nonzero"/></clipPath><clipPath id="id24"><path d="M 0 17.800781 L 61.214844 0 L 80.902344 67.695312 L 19.6875 85.496094 Z M 0 17.800781 " clip-rule="nonzero"/></clipPath><clipPath id="id25"><path d="M 53.519531 209 L 139.769531 209 L 139.769531 265.914062 L 53.519531 265.914062 Z M 53.519531 209 " clip-rule="nonzero"/></clipPath><clipPath id="id26"><path d="M 147.453125 123 L 217.203125 123 L 217.203125 192 L 147.453125 192 Z M 147.453125 123 " clip-rule="nonzero"/></clipPath><clipPath id="id27"><path d="M 234.152344 46 L 266 46 L 266 88 L 234.152344 88 Z M 234.152344 46 " clip-rule="nonzero"/></clipPath><clipPath id="id28"><path d="M 234.152344 37.5 L 260 37.5 L 260 88 L 234.152344 88 Z M 234.152344 37.5 " clip-rule="nonzero"/></clipPath><clipPath id="id29"><path d="M 234.152344 53 L 260 53 L 260 88 L 234.152344 88 Z M 234.152344 53 " clip-rule="nonzero"/></clipPath><clipPath id="id30"><path d="M 234.152344 50 L 279.902344 50 L 279.902344 100.5 L 234.152344 100.5 Z M 234.152344 50 " clip-rule="nonzero"/></clipPath><clipPath id="id31"><path d="M 32.859375 110 L 96.609375 110 L 96.609375 167 L 32.859375 167 Z M 32.859375 110 " clip-rule="nonzero"/></clipPath><clipPath id="id32"><path d="M 264.933594 241.519531 L 312.933594 241.519531 L 312.933594 289.519531 L 264.933594 289.519531 Z M 264.933594 241.519531 " clip-rule="nonzero"/></clipPath><clipPath id="id33"><path d="M 159.695312 42.722656 L 204.695312 42.722656 L 204.695312 92.972656 L 159.695312 92.972656 Z M 159.695312 42.722656 " clip-rule="nonzero"/></clipPath><clipPath id="id34"><path d="M 211 259.132812 L 220.472656 259.132812 L 220.472656 268 L 211 268 Z M 211 259.132812 " clip-rule="nonzero"/></clipPath><clipPath id="id35"><path d="M 187 259.132812 L 220.472656 259.132812 L 220.472656 302.632812 L 187 302.632812 Z M 187 259.132812 " clip-rule="nonzero"/></clipPath><clipPath id="id36"><path d="M 212 267 L 220.472656 267 L 220.472656 269 L 212 269 Z M 212 267 " clip-rule="nonzero"/></clipPath><clipPath id="id37"><path d="M 182.222656 261 L 208 261 L 208 273 L 182.222656 273 Z M 182.222656 261 " clip-rule="nonzero"/></clipPath><clipPath id="id38"><path d="M 96.585938 292.71875 L 155.835938 292.71875 L 155.835938 347.46875 L 96.585938 347.46875 Z M 96.585938 292.71875 " clip-rule="nonzero"/></clipPath><clipPath id="id39"><path d="M 298 12 L 351.976562 12 L 351.976562 53 L 298 53 Z M 298 12 " clip-rule="nonzero"/></clipPath><clipPath id="id40"><path d="M 13 292 L 74 292 L 74 338 L 13 338 Z M 13 292 " clip-rule="nonzero"/></clipPath><clipPath id="id41"><path d="M 9.050781 311.691406 L 63.578125 286.660156 L 78.910156 320.0625 L 24.382812 345.09375 Z M 9.050781 311.691406 " clip-rule="nonzero"/></clipPath><clipPath id="id42"><path d="M 9.050781 311.691406 L 63.578125 286.660156 L 78.910156 320.0625 L 24.382812 345.09375 Z M 9.050781 311.691406 " clip-rule="nonzero"/></clipPath><clipPath id="id43"><path d="M 9.050781 311.691406 L 63.578125 286.660156 L 78.910156 320.0625 L 24.382812 345.09375 Z M 9.050781 311.691406 " clip-rule="nonzero"/></clipPath><clipPath id="id44"><path d="M 238 310.824219 L 268 310.824219 L 268 343 L 238 343 Z M 238 310.824219 " clip-rule="nonzero"/></clipPath><clipPath id="id45"><path d="M 250 320 L 280 320 L 280 352.074219 L 250 352.074219 Z M 250 320 " clip-rule="nonzero"/></clipPath><clipPath id="id46"><path d="M 217 198.039062 L 252.242188 198.039062 L 252.242188 237.039062 L 217 237.039062 Z M 217 198.039062 " clip-rule="nonzero"/></clipPath><clipPath id="id47"><path d="M 98.167969 64.707031 L 139.417969 64.707031 L 139.417969 105.957031 L 98.167969 105.957031 Z M 98.167969 64.707031 " clip-rule="nonzero"/></clipPath><clipPath id="id48"><path d="M 131 78 L 139.417969 78 L 139.417969 90 L 131 90 Z M 131 78 " clip-rule="nonzero"/></clipPath><clipPath id="id49"><path d="M 98.167969 78 L 107 78 L 107 89 L 98.167969 89 Z M 98.167969 78 " clip-rule="nonzero"/></clipPath><clipPath id="id50"><path d="M 315.0625 307.332031 L 348.8125 307.332031 L 348.8125 341.082031 L 315.0625 341.082031 Z M 315.0625 307.332031 " clip-rule="nonzero"/></clipPath><clipPath id="id51"><path d="M 13.191406 181.664062 L 52.191406 181.664062 L 52.191406 198.164062 L 13.191406 198.164062 Z M 13.191406 181.664062 " clip-rule="nonzero"/></clipPath><clipPath id="id52"><path d="M 321 200.675781 L 349 200.675781 L 349 214 L 321 214 Z M 321 200.675781 " clip-rule="nonzero"/></clipPath><clipPath id="id53"><path d="M 336 204 L 358.324219 204 L 358.324219 235 L 336 235 Z M 336 204 " clip-rule="nonzero"/></clipPath><clipPath id="id54"><path d="M 316.324219 210 L 338 210 L 338 233 L 316.324219 233 Z M 316.324219 210 " clip-rule="nonzero"/></clipPath></defs><rect x="-37.5" width="450" fill="#ffffff" y="-37.499999" height="449.999989" fill-opacity="1"/><rect x="-37.5" width="450" fill="#ffffff" y="-37.499999" height="449.999989" fill-opacity="1"/><rect x="-37.5" width="450" fill="#ffffff" y="-37.499999" height="449.999989" fill-opacity="1"/><rect x="-37.5" width="450" fill="#ffffff" y="-37.499999" height="449.999989" fill-opacity="1"/><g clip-path="url(#id1)"><g clip-path="url(#id2)"><g clip-path="url(#id3)"><g clip-path="url(#id4)"><path fill="#00549d" d="M 29.03125 10.03125 C 29.941406 9.105469 31.28125 8.714844 32.542969 9.007812 C 38.800781 10.464844 57.625 14.851562 63.882812 16.308594 C 65.148438 16.601562 66.148438 17.535156 66.503906 18.757812 C 68.261719 24.800781 73.546875 42.984375 75.304688 49.023438 C 75.660156 50.246094 75.320312 51.570312 74.410156 52.5 C 69.910156 57.082031 56.371094 70.882812 51.871094 75.464844 C 50.960938 76.394531 49.621094 76.785156 48.355469 76.488281 C 42.101562 75.03125 23.273438 70.644531 17.015625 69.1875 C 15.75 68.894531 14.753906 67.960938 14.398438 66.738281 C 12.640625 60.699219 7.355469 42.515625 5.597656 36.472656 C 5.242188 35.25 5.582031 33.925781 6.492188 33 C 10.992188 28.414062 24.53125 14.617188 29.03125 10.03125 Z M 29.03125 10.03125 " fill-opacity="1" fill-rule="evenodd"/></g></g></g></g><g clip-path="url(#id5)"><g clip-path="url(#id6)"><g clip-path="url(#id7)"><g clip-path="url(#id8)"><path fill="#0086d4" d="M 15.339844 68.152344 C 14.746094 67.707031 14.527344 67.183594 14.316406 66.453125 C 12.566406 60.445312 7.3125 42.367188 5.5625 36.359375 C 5.210938 35.144531 5.550781 33.824219 6.460938 32.902344 C 10.945312 28.34375 24.445312 14.613281 28.929688 10.050781 C 29.835938 9.128906 31.3125 8.710938 32.574219 9.003906 C 38.804688 10.449219 57.484375 14.738281 63.714844 16.183594 C 64.21875 16.300781 64.632812 16.5 65.042969 16.800781 Z M 15.339844 68.152344 " fill-opacity="1" fill-rule="evenodd"/></g></g></g></g><g clip-path="url(#id9)"><g clip-path="url(#id10)"><g clip-path="url(#id11)"><g clip-path="url(#id12)"><path fill="#ffffff" d="M 33.917969 20.289062 C 46.304688 16.6875 59.285156 23.828125 62.890625 36.222656 C 66.496094 48.617188 59.367188 61.605469 46.980469 65.207031 C 34.597656 68.808594 21.617188 61.671875 18.011719 49.273438 C 14.40625 36.878906 21.535156 23.890625 33.917969 20.289062 Z M 37.183594 31.519531 C 43.378906 29.71875 49.867188 33.289062 51.671875 39.484375 C 53.472656 45.683594 49.910156 52.175781 43.714844 53.976562 C 37.523438 55.777344 31.035156 52.207031 29.230469 46.011719 C 27.429688 39.8125 30.992188 33.320312 37.183594 31.519531 Z M 37.183594 31.519531 " fill-opacity="1" fill-rule="evenodd"/></g></g></g></g><g clip-path="url(#id13)"><g clip-path="url(#id14)"><g clip-path="url(#id15)"><g clip-path="url(#id16)"><path fill="#0075c0" d="M 65.042969 16.816406 C 66.09375 17.351562 66.417969 18.523438 66.6875 19.441406 C 68.457031 25.53125 73.441406 42.859375 75.277344 48.929688 C 75.46875 49.5625 75.453125 50.292969 75.285156 50.886719 L 39.796875 42.9375 Z M 65.042969 16.816406 " fill-opacity="1" fill-rule="evenodd"/></g></g></g></g><g clip-path="url(#id17)"><g clip-path="url(#id18)"><g clip-path="url(#id19)"><g clip-path="url(#id20)"><path fill="#ffffff" d="M 50.269531 34.671875 L 53.476562 33.742188 L 56.277344 43.367188 L 53.070312 44.296875 Z M 61.492188 31.410156 L 64.695312 30.480469 L 67.496094 40.105469 L 64.289062 41.035156 Z M 61.492188 31.410156 " fill-opacity="1" fill-rule="evenodd"/></g></g></g></g><g clip-path="url(#id21)"><g clip-path="url(#id22)"><g clip-path="url(#id23)"><g clip-path="url(#id24)"><path fill="#ffffff" d="M 48 38.8125 L 57.617188 36.019531 L 58.546875 39.226562 L 48.929688 42.023438 Z M 59.21875 35.550781 L 68.835938 32.753906 L 69.769531 35.964844 L 60.152344 38.761719 Z M 59.21875 35.550781 " fill-opacity="1" fill-rule="evenodd"/></g></g></g></g><g clip-path="url(#id25)"><path fill="#364548" d="M 98.488281 226.925781 L 107.261719 226.925781 L 107.261719 235.945312 L 111.699219 235.945312 C 113.75 235.945312 115.855469 235.578125 117.800781 234.914062 C 118.75 234.589844 119.820312 234.136719 120.761719 233.570312 C 119.523438 231.945312 118.890625 229.894531 118.703125 227.867188 C 118.449219 225.117188 119.003906 221.53125 120.855469 219.378906 L 121.777344 218.304688 L 122.878906 219.195312 C 125.644531 221.429688 127.972656 224.550781 128.382812 228.113281 C 131.714844 227.125 135.625 227.359375 138.5625 229.066406 L 139.769531 229.761719 L 139.136719 231.007812 C 136.652344 235.882812 131.460938 237.390625 126.382812 237.125 C 118.78125 256.144531 102.242188 265.152344 82.1875 265.152344 C 71.824219 265.152344 62.316406 261.257812 56.90625 252.015625 L 56.816406 251.867188 L 56.023438 250.253906 C 54.195312 246.183594 53.585938 241.730469 54 237.277344 L 54.125 235.945312 L 61.628906 235.945312 L 61.628906 226.925781 L 70.40625 226.925781 L 70.40625 218.105469 L 87.953125 218.105469 L 87.953125 209.285156 L 98.488281 209.285156 Z M 98.488281 226.925781 " fill-opacity="1" fill-rule="nonzero"/></g><path fill="#22a0c8" d="M 126.917969 230.261719 C 127.503906 225.667969 124.082031 222.058594 121.960938 220.34375 C 119.515625 223.183594 119.132812 230.632812 122.972656 233.769531 C 120.832031 235.679688 116.320312 237.414062 111.699219 237.414062 L 55.460938 237.414062 C 55.011719 242.265625 55.855469 246.726562 57.789062 250.550781 L 58.429688 251.726562 C 58.835938 252.414062 59.277344 253.085938 59.753906 253.726562 C 62.066406 253.875 64.199219 253.925781 66.148438 253.882812 C 69.980469 253.796875 73.109375 253.34375 75.480469 252.515625 C 75.835938 252.40625 76.210938 252.605469 76.324219 252.960938 C 76.429688 253.304688 76.253906 253.671875 75.917969 253.796875 C 75.605469 253.910156 75.273438 254.007812 74.933594 254.105469 C 73.070312 254.644531 71.066406 255.003906 68.484375 255.164062 C 68.640625 255.167969 68.324219 255.1875 68.324219 255.1875 C 68.234375 255.191406 68.128906 255.203125 68.039062 255.207031 C 67.023438 255.265625 65.925781 255.277344 64.804688 255.277344 C 63.574219 255.277344 62.371094 255.253906 61.015625 255.183594 L 60.980469 255.203125 C 65.664062 260.5 72.996094 263.671875 82.179688 263.671875 C 101.617188 263.671875 118.101562 255.007812 125.402344 235.566406 C 130.582031 236.101562 135.5625 234.769531 137.824219 230.328125 C 134.226562 228.246094 129.585938 228.910156 126.917969 230.261719 Z M 126.917969 230.261719 " fill-opacity="1" fill-rule="nonzero"/><path fill="#37b1d9" d="M 126.917969 230.261719 C 127.503906 225.667969 124.082031 222.058594 121.960938 220.34375 C 119.515625 223.183594 119.132812 230.632812 122.972656 233.769531 C 120.832031 235.679688 116.320312 237.414062 111.699219 237.414062 L 58.789062 237.414062 C 58.558594 244.839844 61.300781 250.472656 66.148438 253.882812 C 69.980469 253.796875 73.109375 253.34375 75.480469 252.515625 C 75.835938 252.40625 76.210938 252.605469 76.324219 252.960938 C 76.429688 253.304688 76.253906 253.671875 75.917969 253.796875 C 75.605469 253.910156 75.273438 254.007812 74.933594 254.105469 C 73.070312 254.644531 70.894531 255.050781 68.3125 255.207031 C 68.3125 255.207031 68.253906 255.144531 68.25 255.144531 C 74.863281 258.554688 84.457031 258.546875 95.453125 254.296875 C 107.78125 249.535156 119.257812 240.464844 127.265625 230.085938 C 127.152344 230.148438 127.03125 230.207031 126.917969 230.261719 Z M 126.917969 230.261719 " fill-opacity="1" fill-rule="nonzero"/><path fill="#1b81a5" d="M 55.5625 243.304688 C 55.914062 245.902344 56.667969 248.332031 57.789062 250.546875 L 58.429688 251.722656 C 58.835938 252.414062 59.277344 253.082031 59.753906 253.722656 C 62.066406 253.871094 64.199219 253.921875 66.148438 253.878906 C 69.980469 253.792969 73.109375 253.339844 75.480469 252.511719 C 75.835938 252.402344 76.210938 252.601562 76.324219 252.960938 C 76.429688 253.300781 76.253906 253.667969 75.917969 253.792969 C 75.605469 253.90625 75.273438 254.007812 74.933594 254.101562 C 73.070312 254.640625 70.90625 255.023438 68.324219 255.183594 C 68.234375 255.1875 68.082031 255.1875 67.992188 255.191406 C 66.976562 255.25 65.890625 255.285156 64.769531 255.285156 C 63.539062 255.285156 62.289062 255.261719 60.9375 255.191406 C 65.625 260.488281 72.996094 263.675781 82.183594 263.675781 C 98.824219 263.675781 113.300781 257.328125 121.703125 243.300781 L 55.5625 243.300781 Z M 55.5625 243.304688 " fill-opacity="1" fill-rule="nonzero"/><path fill="#1d91b4" d="M 59.296875 243.304688 C 60.289062 247.867188 62.679688 251.445312 66.152344 253.878906 C 69.984375 253.792969 73.113281 253.339844 75.484375 252.511719 C 75.839844 252.402344 76.214844 252.601562 76.328125 252.960938 C 76.433594 253.300781 76.253906 253.667969 75.921875 253.792969 C 75.609375 253.90625 75.277344 254.007812 74.9375 254.101562 C 73.074219 254.640625 70.867188 255.023438 68.28125 255.183594 C 74.894531 258.59375 84.460938 258.542969 95.457031 254.296875 C 102.109375 251.730469 108.511719 247.90625 114.257812 243.296875 L 59.296875 243.296875 Z M 59.296875 243.304688 " fill-opacity="1" fill-rule="nonzero"/><path fill="#23a3c2" d="M 63.09375 228.398438 L 70.699219 228.398438 L 70.699219 236.039062 L 63.09375 236.039062 Z M 63.726562 229.035156 L 64.328125 229.035156 L 64.328125 235.402344 L 63.726562 235.402344 Z M 64.855469 229.035156 L 65.476562 229.035156 L 65.476562 235.402344 L 64.855469 235.402344 Z M 66.007812 229.035156 L 66.628906 229.035156 L 66.628906 235.402344 L 66.007812 235.402344 Z M 67.160156 229.035156 L 67.78125 229.035156 L 67.78125 235.402344 L 67.160156 235.402344 Z M 68.3125 229.035156 L 68.933594 229.035156 L 68.933594 235.402344 L 68.3125 235.402344 Z M 69.464844 229.035156 L 70.0625 229.035156 L 70.0625 235.402344 L 69.464844 235.402344 Z M 71.867188 219.574219 L 79.472656 219.574219 L 79.472656 227.21875 L 71.863281 227.21875 Z M 72.5 220.210938 L 73.101562 220.210938 L 73.101562 226.582031 L 72.5 226.582031 Z M 73.628906 220.210938 L 74.25 220.210938 L 74.25 226.582031 L 73.628906 226.582031 Z M 74.78125 220.210938 L 75.402344 220.210938 L 75.402344 226.582031 L 74.78125 226.582031 Z M 75.933594 220.210938 L 76.554688 220.210938 L 76.554688 226.582031 L 75.933594 226.582031 Z M 77.085938 220.210938 L 77.707031 220.210938 L 77.707031 226.582031 L 77.085938 226.582031 Z M 78.238281 220.210938 L 78.839844 220.210938 L 78.839844 226.582031 L 78.238281 226.582031 Z M 78.238281 220.210938 " fill-opacity="1" fill-rule="nonzero"/><path fill="#34bbde" d="M 71.867188 228.398438 L 79.472656 228.398438 L 79.472656 236.039062 L 71.863281 236.039062 Z M 72.5 229.035156 L 73.101562 229.035156 L 73.101562 235.402344 L 72.5 235.402344 Z M 73.628906 229.035156 L 74.25 229.035156 L 74.25 235.402344 L 73.628906 235.402344 Z M 74.78125 229.035156 L 75.402344 229.035156 L 75.402344 235.402344 L 74.78125 235.402344 Z M 75.933594 229.035156 L 76.554688 229.035156 L 76.554688 235.402344 L 75.933594 235.402344 Z M 77.085938 229.035156 L 77.707031 229.035156 L 77.707031 235.402344 L 77.085938 235.402344 Z M 78.238281 229.035156 L 78.839844 229.035156 L 78.839844 235.402344 L 78.238281 235.402344 Z M 78.238281 229.035156 " fill-opacity="1" fill-rule="nonzero"/><path fill="#23a3c2" d="M 80.644531 228.398438 L 88.25 228.398438 L 88.25 236.039062 L 80.644531 236.039062 Z M 81.277344 229.035156 L 81.878906 229.035156 L 81.878906 235.402344 L 81.277344 235.402344 Z M 82.402344 229.035156 L 83.027344 229.035156 L 83.027344 235.402344 L 82.402344 235.402344 Z M 83.554688 229.035156 L 84.179688 229.035156 L 84.179688 235.402344 L 83.554688 235.402344 Z M 84.710938 229.035156 L 85.332031 229.035156 L 85.332031 235.402344 L 84.710938 235.402344 Z M 85.863281 229.035156 L 86.488281 229.035156 L 86.488281 235.402344 L 85.863281 235.402344 Z M 87.015625 229.035156 L 87.613281 229.035156 L 87.613281 235.402344 L 87.015625 235.402344 Z M 87.015625 229.035156 " fill-opacity="1" fill-rule="nonzero"/><path fill="#34bbde" d="M 80.644531 219.574219 L 88.25 219.574219 L 88.25 227.21875 L 80.644531 227.21875 Z M 81.277344 220.210938 L 81.878906 220.210938 L 81.878906 226.582031 L 81.277344 226.582031 Z M 82.402344 220.210938 L 83.027344 220.210938 L 83.027344 226.582031 L 82.402344 226.582031 Z M 83.554688 220.210938 L 84.179688 220.210938 L 84.179688 226.582031 L 83.554688 226.582031 Z M 84.710938 220.210938 L 85.332031 220.210938 L 85.332031 226.582031 L 84.710938 226.582031 Z M 85.863281 220.210938 L 86.488281 220.210938 L 86.488281 226.582031 L 85.863281 226.582031 Z M 87.015625 220.210938 L 87.613281 220.210938 L 87.613281 226.582031 L 87.015625 226.582031 Z M 89.417969 228.398438 L 97.023438 228.398438 L 97.023438 236.039062 L 89.417969 236.039062 Z M 90.050781 229.035156 L 90.652344 229.035156 L 90.652344 235.402344 L 90.050781 235.402344 Z M 91.179688 229.035156 L 91.800781 229.035156 L 91.800781 235.402344 L 91.179688 235.402344 Z M 92.332031 229.035156 L 92.953125 229.035156 L 92.953125 235.402344 L 92.332031 235.402344 Z M 93.484375 229.035156 L 94.105469 229.035156 L 94.105469 235.402344 L 93.484375 235.402344 Z M 94.636719 229.035156 L 95.257812 229.035156 L 95.257812 235.402344 L 94.636719 235.402344 Z M 95.789062 229.035156 L 96.390625 229.035156 L 96.390625 235.402344 L 95.789062 235.402344 Z M 95.789062 229.035156 " fill-opacity="1" fill-rule="nonzero"/><path fill="#23a3c2" d="M 89.417969 219.574219 L 97.023438 219.574219 L 97.023438 227.21875 L 89.417969 227.21875 Z M 90.050781 220.210938 L 90.652344 220.210938 L 90.652344 226.582031 L 90.050781 226.582031 Z M 91.179688 220.210938 L 91.800781 220.210938 L 91.800781 226.582031 L 91.179688 226.582031 Z M 92.332031 220.210938 L 92.953125 220.210938 L 92.953125 226.582031 L 92.332031 226.582031 Z M 93.484375 220.210938 L 94.105469 220.210938 L 94.105469 226.582031 L 93.484375 226.582031 Z M 94.636719 220.210938 L 95.257812 220.210938 L 95.257812 226.582031 L 94.636719 226.582031 Z M 95.789062 220.210938 L 96.390625 220.210938 L 96.390625 226.582031 L 95.789062 226.582031 Z M 95.789062 220.210938 " fill-opacity="1" fill-rule="nonzero"/><path fill="#34bbde" d="M 89.417969 210.753906 L 97.023438 210.753906 L 97.023438 218.398438 L 89.417969 218.398438 Z M 90.050781 211.390625 L 90.652344 211.390625 L 90.652344 217.761719 L 90.050781 217.761719 Z M 91.179688 211.390625 L 91.800781 211.390625 L 91.800781 217.761719 L 91.179688 217.761719 Z M 92.332031 211.390625 L 92.953125 211.390625 L 92.953125 217.761719 L 92.332031 217.761719 Z M 93.484375 211.390625 L 94.105469 211.390625 L 94.105469 217.761719 L 93.484375 217.761719 Z M 94.636719 211.390625 L 95.257812 211.390625 L 95.257812 217.761719 L 94.636719 217.761719 Z M 95.789062 211.390625 L 96.390625 211.390625 L 96.390625 217.761719 L 95.789062 217.761719 Z M 95.789062 211.390625 " fill-opacity="1" fill-rule="nonzero"/><path fill="#23a3c2" d="M 98.195312 228.398438 L 105.800781 228.398438 L 105.800781 236.039062 L 98.195312 236.039062 Z M 98.828125 229.035156 L 99.429688 229.035156 L 99.429688 235.402344 L 98.828125 235.402344 Z M 99.953125 229.035156 L 100.578125 229.035156 L 100.578125 235.402344 L 99.953125 235.402344 Z M 101.105469 229.035156 L 101.730469 229.035156 L 101.730469 235.402344 L 101.105469 235.402344 Z M 102.257812 229.035156 L 102.882812 229.035156 L 102.882812 235.402344 L 102.257812 235.402344 Z M 103.410156 229.035156 L 104.035156 229.035156 L 104.035156 235.402344 L 103.410156 235.402344 Z M 104.5625 229.035156 L 105.164062 229.035156 L 105.164062 235.402344 L 104.5625 235.402344 Z M 104.5625 229.035156 " fill-opacity="1" fill-rule="nonzero"/><path fill="#d3ecec" d="M 78.996094 248.4375 C 80.15625 248.421875 81.109375 249.355469 81.121094 250.519531 C 81.136719 251.6875 80.210938 252.640625 79.050781 252.65625 C 79.03125 252.65625 79.011719 252.65625 78.992188 252.65625 C 77.835938 252.640625 76.90625 251.6875 76.925781 250.519531 C 76.941406 249.371094 77.859375 248.453125 78.996094 248.4375 Z M 78.996094 248.4375 " fill-opacity="1" fill-rule="nonzero"/><path fill="#364548" d="M 78.996094 249.035156 C 79.191406 249.035156 79.371094 249.070312 79.542969 249.136719 C 79.246094 249.308594 79.148438 249.683594 79.320312 249.976562 C 79.429688 250.167969 79.628906 250.28125 79.847656 250.28125 C 80.082031 250.28125 80.28125 250.152344 80.386719 249.960938 C 80.703125 250.730469 80.339844 251.617188 79.574219 251.9375 C 78.808594 252.257812 77.925781 251.890625 77.609375 251.121094 C 77.289062 250.351562 77.65625 249.464844 78.421875 249.144531 C 78.601562 249.074219 78.800781 249.035156 78.996094 249.035156 Z M 78.996094 249.035156 " fill-opacity="1" fill-rule="nonzero"/><path fill="#bdd9d7" d="M 84.574219 263.632812 C 79.375 261.152344 76.523438 257.78125 74.9375 254.105469 C 73.011719 254.660156 70.6875 255.011719 67.992188 255.167969 C 66.976562 255.226562 65.910156 255.253906 64.789062 255.253906 C 63.496094 255.253906 62.132812 255.214844 60.707031 255.140625 C 65.472656 259.925781 71.335938 263.609375 82.191406 263.679688 C 82.988281 263.679688 83.78125 263.664062 84.574219 263.632812 Z M 84.574219 263.632812 " fill-opacity="1" fill-rule="nonzero"/><path fill="#d3ecec" d="M 76.867188 257.503906 C 76.148438 256.519531 75.449219 255.289062 74.9375 254.105469 C 73.011719 254.660156 70.6875 255.015625 67.992188 255.167969 C 69.847656 256.179688 72.496094 257.113281 76.867188 257.503906 Z M 76.867188 257.503906 " fill-opacity="1" fill-rule="nonzero"/><g clip-path="url(#id26)"><path fill="#000000" d="M 182.328125 123.183594 C 163.066406 123.183594 147.453125 138.800781 147.453125 158.058594 C 147.453125 174.402344 158.707031 188.074219 173.875 191.859375 C 173.714844 191.390625 173.609375 190.84375 173.609375 190.164062 L 173.609375 184.203125 C 172.191406 184.203125 169.820312 184.203125 169.226562 184.203125 C 166.839844 184.203125 164.71875 183.179688 163.6875 181.273438 C 162.546875 179.152344 162.351562 175.914062 159.519531 173.929688 C 158.679688 173.273438 159.320312 172.519531 160.285156 172.621094 C 162.074219 173.125 163.554688 174.351562 164.949219 176.171875 C 166.339844 177.996094 166.992188 178.40625 169.589844 178.40625 C 170.847656 178.40625 172.730469 178.335938 174.503906 178.054688 C 175.457031 175.632812 177.105469 173.40625 179.117188 172.351562 C 167.503906 171.160156 161.964844 165.382812 161.964844 157.539062 C 161.964844 154.160156 163.402344 150.894531 165.847656 148.140625 C 165.042969 145.410156 164.035156 139.839844 166.152344 137.714844 C 171.378906 137.714844 174.539062 141.105469 175.296875 142.019531 C 177.902344 141.128906 180.761719 140.621094 183.765625 140.621094 C 186.777344 140.621094 189.648438 141.128906 192.257812 142.027344 C 193.007812 141.117188 196.167969 137.714844 201.40625 137.714844 C 203.535156 139.839844 202.515625 145.4375 201.703125 148.160156 C 204.132812 150.90625 205.5625 154.164062 205.5625 157.539062 C 205.5625 165.375 200.027344 171.148438 188.433594 172.351562 C 191.625 174.015625 193.953125 178.695312 193.953125 182.21875 L 193.953125 190.164062 C 193.953125 190.46875 193.886719 190.6875 193.851562 190.945312 C 207.441406 186.179688 217.203125 173.277344 217.203125 158.058594 C 217.203125 138.800781 201.585938 123.183594 182.328125 123.183594 Z M 182.328125 123.183594 " fill-opacity="1" fill-rule="nonzero"/></g><g clip-path="url(#id27)"><path fill="#ff8f00" d="M 234.363281 87.585938 L 255.941406 47.058594 C 256.394531 46.203125 257.625 46.21875 258.058594 47.085938 L 265.523438 62.046875 Z M 234.363281 87.585938 " fill-opacity="1" fill-rule="nonzero"/></g><g clip-path="url(#id28)"><path fill="#ffa000" d="M 234.363281 87.578125 L 242.21875 39.050781 C 242.421875 37.78125 244.125 37.503906 244.722656 38.644531 L 259.859375 67.710938 Z M 234.363281 87.578125 " fill-opacity="1" fill-rule="nonzero"/></g><g clip-path="url(#id29)"><path fill="#ff6f00" d="M 234.375 87.566406 L 234.65625 87.34375 L 259.488281 66.996094 L 252.484375 53.550781 Z M 234.375 87.566406 " fill-opacity="1" fill-rule="nonzero"/></g><g clip-path="url(#id30)"><path fill="#ffc400" d="M 234.363281 87.585938 L 272.132812 51.101562 C 272.925781 50.339844 274.246094 50.789062 274.410156 51.878906 L 279.691406 87.585938 L 258.441406 99.992188 C 257.578125 100.480469 256.527344 100.480469 255.664062 99.992188 Z M 234.363281 87.585938 " fill-opacity="1" fill-rule="nonzero"/></g><path fill="#53c1de" d="M 70.4375 138.542969 C 70.4375 138.917969 70.402344 139.289062 70.328125 139.65625 C 70.253906 140.023438 70.148438 140.382812 70.003906 140.730469 C 69.859375 141.074219 69.683594 141.40625 69.476562 141.714844 C 69.269531 142.027344 69.03125 142.316406 68.765625 142.582031 C 68.503906 142.847656 68.214844 143.082031 67.902344 143.292969 C 67.589844 143.5 67.261719 143.675781 66.917969 143.820312 C 66.570312 143.964844 66.214844 144.070312 65.847656 144.144531 C 65.480469 144.21875 65.109375 144.253906 64.734375 144.253906 C 64.359375 144.253906 63.988281 144.21875 63.621094 144.144531 C 63.253906 144.070312 62.898438 143.964844 62.550781 143.820312 C 62.207031 143.675781 61.878906 143.5 61.566406 143.292969 C 61.253906 143.082031 60.96875 142.847656 60.703125 142.582031 C 60.4375 142.316406 60.199219 142.027344 59.992188 141.714844 C 59.785156 141.40625 59.609375 141.074219 59.464844 140.730469 C 59.324219 140.382812 59.214844 140.023438 59.140625 139.65625 C 59.066406 139.289062 59.03125 138.917969 59.03125 138.542969 C 59.03125 138.167969 59.066406 137.796875 59.140625 137.429688 C 59.214844 137.0625 59.324219 136.703125 59.464844 136.359375 C 59.609375 136.011719 59.785156 135.683594 59.992188 135.371094 C 60.199219 135.058594 60.4375 134.769531 60.703125 134.503906 C 60.96875 134.238281 61.253906 134.003906 61.566406 133.792969 C 61.878906 133.585938 62.207031 133.410156 62.550781 133.265625 C 62.898438 133.125 63.253906 133.015625 63.621094 132.941406 C 63.988281 132.867188 64.359375 132.832031 64.734375 132.832031 C 65.109375 132.832031 65.480469 132.867188 65.847656 132.941406 C 66.214844 133.015625 66.570312 133.125 66.917969 133.265625 C 67.261719 133.410156 67.589844 133.585938 67.902344 133.792969 C 68.214844 134.003906 68.503906 134.238281 68.765625 134.503906 C 69.03125 134.769531 69.269531 135.058594 69.476562 135.371094 C 69.683594 135.683594 69.859375 136.011719 70.003906 136.359375 C 70.148438 136.703125 70.253906 137.0625 70.328125 137.429688 C 70.402344 137.796875 70.4375 138.167969 70.4375 138.542969 Z M 70.4375 138.542969 " fill-opacity="1" fill-rule="nonzero"/><g clip-path="url(#id31)"><path fill="#53c1de" d="M 44.851562 148.65625 C 45.410156 148.84375 45.972656 149.03125 46.542969 149.195312 C 46.359375 149.941406 46.195312 150.679688 46.046875 151.4375 C 44.738281 158.359375 45.757812 163.847656 49.019531 165.730469 C 52.382812 167.675781 58.035156 165.679688 63.539062 160.855469 C 63.976562 160.46875 64.410156 160.070312 64.847656 159.644531 C 65.394531 160.179688 65.96875 160.691406 66.539062 161.1875 C 71.867188 165.777344 77.132812 167.632812 80.386719 165.753906 C 83.75 163.808594 84.84375 157.910156 83.425781 150.730469 C 83.3125 150.179688 83.1875 149.621094 83.050781 149.046875 C 83.449219 148.933594 83.832031 148.808594 84.222656 148.683594 C 91.40625 146.300781 96.609375 142.449219 96.609375 138.496094 C 96.609375 134.71875 91.703125 131.050781 84.929688 128.71875 L 84.929688 128.714844 C 84.257812 128.492188 83.585938 128.28125 82.914062 128.082031 C 83.027344 127.621094 83.125 127.15625 83.226562 126.699219 C 84.757812 119.265625 83.75 113.296875 80.347656 111.324219 C 77.074219 109.441406 71.730469 111.398438 66.328125 116.113281 C 65.792969 116.574219 65.269531 117.058594 64.773438 117.546875 C 64.433594 117.222656 64.085938 116.898438 63.738281 116.585938 C 58.074219 111.546875 52.394531 109.429688 48.996094 111.414062 C 45.734375 113.308594 44.761719 118.933594 46.132812 125.960938 C 46.269531 126.660156 46.417969 127.34375 46.59375 128.042969 C 45.796875 128.265625 45.011719 128.515625 44.277344 128.78125 C 37.628906 131.085938 32.859375 134.730469 32.859375 138.496094 C 32.859375 142.386719 37.9375 146.285156 44.851562 148.65625 Z M 61.785156 158.816406 C 59.730469 160.699219 57.351562 162.195312 54.761719 163.21875 C 53.378906 163.878906 51.785156 163.941406 50.363281 163.378906 C 48.386719 162.234375 47.5625 157.832031 48.683594 151.90625 C 48.820312 151.210938 48.96875 150.511719 49.140625 149.824219 C 51.929688 150.421875 54.746094 150.835938 57.597656 151.046875 C 59.242188 153.378906 61.046875 155.609375 62.976562 157.703125 C 62.578125 158.089844 62.179688 158.464844 61.78125 158.8125 Z M 77.597656 135.402344 C 77.011719 134.304688 76.414062 133.207031 75.789062 132.136719 C 75.179688 131.078125 74.542969 130.027344 73.886719 128.992188 C 75.890625 129.242188 77.808594 129.578125 79.601562 129.992188 C 79.027344 131.835938 78.355469 133.632812 77.597656 135.402344 Z M 77.621094 141.609375 C 78.417969 143.417969 79.117188 145.25 79.722656 147.136719 C 77.792969 147.570312 75.839844 147.910156 73.871094 148.132812 C 74.542969 147.085938 75.179688 146.011719 75.804688 144.941406 C 76.4375 143.84375 77.035156 142.734375 77.621094 141.609375 Z M 76.179688 138.507812 C 75.347656 140.230469 74.449219 141.925781 73.492188 143.59375 C 72.546875 145.25 71.539062 146.859375 70.480469 148.457031 C 68.625 148.597656 66.695312 148.65625 64.738281 148.65625 C 62.785156 148.65625 60.894531 148.597656 59.0625 148.480469 C 57.980469 146.898438 56.960938 145.277344 56 143.617188 C 55.042969 141.960938 54.15625 140.277344 53.324219 138.554688 L 53.316406 138.554688 C 54.140625 136.835938 55.035156 135.152344 55.980469 133.496094 C 56.929688 131.835938 57.949219 130.226562 59.019531 128.644531 C 60.886719 128.507812 62.792969 128.433594 64.738281 128.433594 C 66.683594 128.433594 68.597656 128.507812 70.453125 128.644531 C 71.511719 130.21875 72.519531 131.824219 73.480469 133.46875 C 74.4375 135.117188 75.332031 136.800781 76.179688 138.507812 Z M 53.664062 132.160156 C 53.050781 133.21875 52.453125 134.300781 51.894531 135.398438 C 51.109375 133.542969 50.449219 131.722656 49.902344 129.964844 C 51.695312 129.566406 53.601562 129.242188 55.578125 128.992188 C 54.921875 130.027344 54.273438 131.085938 53.664062 132.160156 Z M 51.898438 141.707031 C 52.472656 142.808594 53.054688 143.894531 53.675781 144.964844 C 54.3125 146.050781 54.960938 147.136719 55.644531 148.195312 C 53.703125 147.980469 51.773438 147.671875 49.867188 147.257812 C 50.414062 145.460938 51.101562 143.605469 51.898438 141.707031 Z M 64.835938 155.785156 C 63.566406 154.414062 62.296875 152.894531 61.0625 151.257812 C 62.257812 151.308594 63.492188 151.332031 64.738281 151.332031 C 66.019531 151.332031 67.277344 151.308594 68.523438 151.246094 C 67.378906 152.828125 66.144531 154.339844 64.835938 155.785156 Z M 81.109375 159.527344 C 80.996094 161.046875 80.25 162.46875 79.054688 163.429688 C 77.074219 164.574219 72.855469 163.078125 68.296875 159.164062 C 67.773438 158.714844 67.25 158.226562 66.714844 157.730469 C 68.621094 155.625 70.375 153.390625 71.96875 151.046875 C 74.820312 150.8125 77.660156 150.375 80.460938 149.738281 C 80.585938 150.25 80.699219 150.761719 80.800781 151.261719 C 81.410156 153.957031 81.507812 156.757812 81.109375 159.527344 Z M 82.191406 130.652344 C 82.839844 130.835938 83.460938 131.035156 84.058594 131.234375 C 89.859375 133.230469 93.933594 136.199219 93.933594 138.46875 C 93.933594 140.914062 89.585938 144.066406 83.375 146.125 C 83.027344 146.234375 82.675781 146.347656 82.316406 146.449219 C 81.445312 143.730469 80.375 141.074219 79.140625 138.492188 C 80.335938 135.949219 81.347656 133.328125 82.191406 130.652344 Z M 68.082031 118.132812 C 72.714844 114.09375 77.035156 112.511719 79.003906 113.644531 C 81.109375 114.855469 81.917969 119.742188 80.597656 126.164062 C 80.511719 126.585938 80.421875 127 80.3125 127.410156 C 77.546875 126.789062 74.746094 126.339844 71.929688 126.089844 C 70.3125 123.765625 68.542969 121.546875 66.625 119.464844 C 67.113281 119.003906 67.585938 118.566406 68.082031 118.132812 Z M 64.761719 121.375 C 66.066406 122.796875 67.300781 124.289062 68.445312 125.835938 C 65.980469 125.722656 63.503906 125.722656 61.039062 125.835938 C 62.257812 124.230469 63.515625 122.734375 64.761719 121.375 Z M 50.316406 113.730469 C 52.410156 112.511719 57.054688 114.257812 61.945312 118.59375 C 62.257812 118.867188 62.566406 119.167969 62.890625 119.46875 C 60.960938 121.546875 59.179688 123.765625 57.550781 126.085938 C 54.738281 126.335938 51.949219 126.773438 49.183594 127.382812 C 49.019531 126.75 48.886719 126.097656 48.746094 125.449219 C 47.574219 119.414062 48.347656 114.867188 50.316406 113.730469 Z M 45.148438 131.308594 C 45.859375 131.058594 46.582031 130.835938 47.304688 130.625 C 48.152344 133.328125 49.171875 135.988281 50.355469 138.554688 C 49.160156 141.160156 48.125 143.851562 47.265625 146.59375 L 47.265625 146.597656 C 46.742188 146.449219 46.230469 146.285156 45.722656 146.109375 C 43.070312 145.277344 40.054688 143.953125 37.878906 142.222656 C 36.621094 141.347656 35.773438 140.003906 35.539062 138.492188 C 35.539062 136.210938 39.472656 133.292969 45.148438 131.308594 Z M 45.148438 131.308594 " fill-opacity="1" fill-rule="nonzero"/></g><g clip-path="url(#id32)"><path fill="#ffd600" d="M 264.933594 241.519531 L 312.933594 241.519531 L 312.933594 289.519531 L 264.933594 289.519531 Z M 264.933594 241.519531 " fill-opacity="1" fill-rule="nonzero"/></g><path fill="#000001" d="M 296.320312 277.449219 C 297.242188 278.949219 298.246094 280.382812 300.367188 280.382812 C 302.152344 280.382812 303.089844 279.496094 303.089844 278.269531 C 303.089844 276.800781 302.121094 276.28125 300.15625 275.425781 L 299.082031 274.96875 C 295.976562 273.648438 293.910156 272 293.910156 268.511719 C 293.910156 265.300781 296.371094 262.855469 300.214844 262.855469 C 302.953125 262.855469 304.917969 263.800781 306.339844 266.285156 L 302.984375 268.425781 C 302.25 267.109375 301.453125 266.589844 300.214844 266.589844 C 298.953125 266.589844 298.15625 267.386719 298.15625 268.425781 C 298.15625 269.710938 298.957031 270.234375 300.800781 271.027344 L 301.878906 271.488281 C 305.539062 273.046875 307.601562 274.636719 307.601562 278.21875 C 307.601562 282.074219 304.558594 284.1875 300.46875 284.1875 C 296.46875 284.1875 294.199219 282.179688 292.933594 279.695312 Z M 280.871094 277.558594 C 281.546875 278.765625 282.570312 279.695312 284.046875 279.695312 C 285.457031 279.695312 286.269531 279.136719 286.269531 276.972656 L 286.269531 262.851562 L 290.710938 262.851562 L 290.710938 277.652344 C 290.710938 282.144531 288.109375 284.1875 284.304688 284.1875 C 280.871094 284.1875 278.390625 281.859375 277.378906 279.695312 Z M 280.871094 277.558594 " fill-opacity="1" fill-rule="nonzero"/><g clip-path="url(#id33)"><path fill="#0277bd" d="M 204.6875 42.722656 L 159.703125 42.722656 L 163.671875 87.683594 L 182.195312 92.972656 L 200.71875 87.683594 Z M 204.6875 42.722656 " fill-opacity="1" fill-rule="nonzero"/></g><path fill="#039be5" d="M 182.195312 46.691406 L 182.195312 88.875 L 197.015625 84.640625 L 200.324219 46.691406 Z M 182.195312 46.691406 " fill-opacity="1" fill-rule="nonzero"/><path fill="#ffffff" d="M 194.234375 53.300781 L 182.195312 53.300781 L 182.195312 58.59375 L 188.679688 58.59375 L 188.28125 63.882812 L 182.195312 63.882812 L 182.195312 69.171875 L 188.015625 69.171875 L 187.621094 75.121094 L 182.195312 76.972656 L 182.195312 82.527344 L 192.648438 79.089844 L 193.574219 63.882812 Z M 194.234375 53.300781 " fill-opacity="1" fill-rule="nonzero"/><path fill="#eeeeee" d="M 182.195312 53.300781 L 182.195312 58.59375 L 170.417969 58.59375 L 170.023438 53.300781 Z M 176.109375 63.882812 L 176.375 69.171875 L 182.195312 69.171875 L 182.195312 63.882812 Z M 176.636719 71.816406 L 171.34375 71.816406 L 171.742188 79.089844 L 182.195312 82.527344 L 182.195312 76.972656 L 176.769531 75.121094 Z M 176.636719 71.816406 " fill-opacity="1" fill-rule="nonzero"/><g clip-path="url(#id34)"><path fill="#ffaf36" d="M 211.96875 259.132812 L 220.464844 267.550781 L 211.96875 267.550781 Z M 211.96875 259.132812 " fill-opacity="1" fill-rule="nonzero"/></g><g clip-path="url(#id35)"><path fill="#ff6d00" d="M 220.464844 267.550781 L 220.464844 302.632812 L 187.894531 302.632812 L 187.894531 259.132812 L 211.96875 259.132812 L 211.96875 267.550781 Z M 220.464844 267.550781 " fill-opacity="1" fill-rule="nonzero"/></g><path fill="#f54e00" d="M 189.308594 264.746094 L 189.308594 298.421875 C 189.308594 298.792969 189.382812 299.152344 189.523438 299.496094 C 189.667969 299.839844 189.875 300.144531 190.140625 300.40625 C 190.40625 300.667969 190.710938 300.871094 191.058594 301.015625 C 191.40625 301.15625 191.765625 301.226562 192.140625 301.226562 L 216.214844 301.226562 C 216.589844 301.226562 216.953125 301.15625 217.300781 301.015625 C 217.648438 300.871094 217.953125 300.667969 218.21875 300.40625 C 218.484375 300.144531 218.6875 299.839844 218.832031 299.496094 C 218.976562 299.152344 219.046875 298.792969 219.046875 298.421875 L 219.046875 296.933594 C 189.308594 295.117188 189.308594 264.746094 189.308594 264.746094 Z M 189.308594 264.746094 " fill-opacity="1" fill-rule="nonzero"/><g clip-path="url(#id36)"><path fill="#f54e00" d="M 212.675781 267.550781 L 220.464844 267.550781 L 220.464844 268.953125 L 212.675781 268.953125 Z M 212.675781 267.550781 " fill-opacity="1" fill-rule="nonzero"/></g><g clip-path="url(#id37)"><path fill="#f54100" d="M 182.230469 261.234375 L 207.71875 261.234375 L 207.71875 272.460938 L 182.230469 272.460938 Z M 182.230469 261.234375 " fill-opacity="1" fill-rule="nonzero"/></g><path fill="#d63900" d="M 187.894531 272.460938 L 206.304688 272.460938 L 206.304688 274.566406 L 187.894531 274.566406 Z M 187.894531 272.460938 " fill-opacity="1" fill-rule="nonzero"/><path fill="#ffffff" d="M 203.472656 268.953125 L 203.472656 263.339844 L 202.054688 263.339844 L 202.054688 269.65625 C 202.054688 269.847656 202.125 270.015625 202.261719 270.152344 C 202.398438 270.289062 202.566406 270.355469 202.761719 270.355469 L 205.59375 270.355469 L 205.59375 268.953125 Z M 203.472656 268.953125 " fill-opacity="1" fill-rule="nonzero"/><path fill="#ffffff" d="M 187.894531 266.148438 L 185.769531 266.148438 L 185.769531 263.339844 L 184.351562 263.339844 L 184.351562 270.355469 L 185.769531 270.355469 L 185.769531 267.550781 L 187.894531 267.550781 L 187.894531 270.355469 L 189.308594 270.355469 L 189.308594 263.339844 L 187.894531 263.339844 Z M 187.894531 266.148438 " fill-opacity="1" fill-rule="nonzero"/><path fill="#ffffff" d="M 190.015625 264.746094 L 191.433594 264.746094 L 191.433594 270.355469 L 192.851562 270.355469 L 192.851562 264.746094 L 194.265625 264.746094 L 194.265625 263.339844 L 190.015625 263.339844 Z M 190.015625 264.746094 " fill-opacity="1" fill-rule="nonzero"/><path fill="#ffffff" d="M 200.070312 263.355469 C 199.90625 263.320312 199.75 263.34375 199.601562 263.417969 C 199.453125 263.496094 199.34375 263.613281 199.277344 263.765625 L 197.804688 267.171875 L 196.332031 263.765625 C 196.265625 263.613281 196.160156 263.5 196.011719 263.421875 C 195.859375 263.34375 195.703125 263.320312 195.539062 263.355469 C 195.375 263.390625 195.238281 263.46875 195.132812 263.597656 C 195.027344 263.726562 194.972656 263.875 194.972656 264.042969 L 194.972656 270.355469 L 196.390625 270.355469 L 196.390625 267.460938 L 197.15625 269.230469 C 197.277344 269.515625 197.496094 269.65625 197.804688 269.65625 C 198.117188 269.65625 198.335938 269.515625 198.457031 269.230469 L 199.222656 267.460938 L 199.222656 270.355469 L 200.636719 270.355469 L 200.636719 264.042969 C 200.636719 263.875 200.585938 263.726562 200.480469 263.597656 C 200.371094 263.46875 200.238281 263.390625 200.070312 263.355469 Z M 200.070312 263.355469 " fill-opacity="1" fill-rule="nonzero"/><path fill="#ffffff" d="M 196.390625 293.511719 L 190.726562 287.195312 L 196.390625 280.882812 L 199.222656 280.882812 L 193.558594 287.195312 L 199.222656 293.511719 Z M 196.390625 293.511719 " fill-opacity="1" fill-rule="nonzero"/><path fill="#ffffff" d="M 211.96875 293.511719 L 217.632812 287.195312 L 211.96875 280.882812 L 209.136719 280.882812 L 214.800781 287.195312 L 209.136719 293.511719 Z M 211.96875 293.511719 " fill-opacity="1" fill-rule="nonzero"/><path fill="#ffffff" d="M 201.347656 293.511719 L 204.886719 280.882812 L 207.011719 280.882812 L 203.472656 293.511719 Z M 201.347656 293.511719 " fill-opacity="1" fill-rule="nonzero"/><path fill="#d63900" d="M 190.726562 287.195312 L 195.132812 282.285156 L 194.972656 282.285156 L 189.308594 288.597656 L 194.972656 294.914062 L 197.804688 294.914062 L 196.546875 293.511719 L 196.390625 293.511719 Z M 190.726562 287.195312 " fill-opacity="1" fill-rule="nonzero"/><path fill="#d63900" d="M 214.800781 287.195312 L 210.394531 282.285156 L 207.71875 282.285156 L 213.382812 288.597656 L 207.71875 294.914062 L 210.550781 294.914062 L 211.808594 293.511719 L 209.136719 293.511719 Z M 214.800781 287.195312 " fill-opacity="1" fill-rule="nonzero"/><path fill="#d63900" d="M 204.492188 282.285156 L 203.472656 282.285156 L 199.929688 294.914062 L 202.054688 294.914062 L 202.449219 293.511719 L 201.347656 293.511719 Z M 204.492188 282.285156 " fill-opacity="1" fill-rule="nonzero"/><path fill="#d63900" d="M 202.054688 269.65625 L 202.054688 264.042969 L 201.347656 264.042969 L 201.347656 270.355469 C 201.347656 270.550781 201.414062 270.714844 201.554688 270.851562 C 201.691406 270.992188 201.859375 271.058594 202.054688 271.058594 L 204.886719 271.058594 L 204.886719 270.355469 L 202.761719 270.355469 C 202.566406 270.355469 202.398438 270.289062 202.261719 270.152344 C 202.125 270.015625 202.054688 269.847656 202.054688 269.65625 Z M 202.054688 269.65625 " fill-opacity="1" fill-rule="nonzero"/><path fill="#d63900" d="M 187.183594 264.042969 L 187.894531 264.042969 L 187.894531 266.148438 L 187.183594 266.148438 Z M 187.183594 264.042969 " fill-opacity="1" fill-rule="nonzero"/><path fill="#d63900" d="M 184.351562 264.042969 L 183.644531 264.042969 L 183.644531 271.058594 L 185.0625 271.058594 L 185.0625 270.355469 L 184.351562 270.355469 Z M 184.351562 264.042969 " fill-opacity="1" fill-rule="nonzero"/><path fill="#d63900" d="M 187.894531 267.550781 L 185.769531 267.550781 L 185.769531 268.253906 L 187.183594 268.253906 L 187.183594 271.058594 L 188.601562 271.058594 L 188.601562 270.355469 L 187.894531 270.355469 Z M 187.894531 267.550781 " fill-opacity="1" fill-rule="nonzero"/><path fill="#d63900" d="M 192.851562 264.746094 L 193.558594 264.746094 L 193.558594 265.445312 L 192.851562 265.445312 Z M 192.851562 264.746094 " fill-opacity="1" fill-rule="nonzero"/><path fill="#d63900" d="M 191.433594 264.746094 L 190.015625 264.746094 L 190.015625 264.042969 L 189.308594 264.042969 L 189.308594 265.445312 L 190.726562 265.445312 L 190.726562 271.058594 L 192.140625 271.058594 L 192.140625 270.355469 L 191.433594 270.355469 Z M 191.433594 264.746094 " fill-opacity="1" fill-rule="nonzero"/><path fill="#d63900" d="M 194.972656 264.050781 C 194.925781 264.050781 194.878906 264.050781 194.832031 264.058594 C 194.667969 264.089844 194.53125 264.171875 194.425781 264.300781 C 194.320312 264.429688 194.265625 264.578125 194.265625 264.746094 L 194.265625 271.058594 L 195.683594 271.058594 L 195.683594 270.355469 L 194.972656 270.355469 Z M 194.972656 264.050781 " fill-opacity="1" fill-rule="nonzero"/><path fill="#d63900" d="M 199.15625 264.050781 C 198.878906 264.074219 198.683594 264.214844 198.570312 264.46875 L 197.605469 266.707031 L 197.804688 267.175781 Z M 199.15625 264.050781 " fill-opacity="1" fill-rule="nonzero"/><path fill="#d63900" d="M 197.15625 269.230469 L 196.390625 267.460938 L 196.390625 269.796875 L 196.449219 269.929688 C 196.570312 270.210938 196.785156 270.351562 197.097656 270.351562 C 197.410156 270.351562 197.625 270.210938 197.75 269.929688 L 197.871094 269.640625 C 197.851562 269.640625 197.828125 269.652344 197.804688 269.652344 C 197.496094 269.652344 197.277344 269.511719 197.15625 269.230469 Z M 197.15625 269.230469 " fill-opacity="1" fill-rule="nonzero"/><path fill="#d63900" d="M 199.222656 267.460938 L 198.515625 269.097656 L 198.515625 271.058594 L 199.929688 271.058594 L 199.929688 270.355469 L 199.222656 270.355469 Z M 199.222656 267.460938 " fill-opacity="1" fill-rule="nonzero"/><path fill="#ff1616" d="M 330.457031 157.210938 C 326.503906 157.210938 322.796875 156.152344 319.605469 154.300781 C 317.214844 155.683594 314.554688 156.613281 311.761719 157.003906 C 306.074219 157.796875 300.308594 156.300781 295.722656 152.84375 C 293.453125 151.132812 291.542969 148.988281 290.097656 146.539062 C 288.65625 144.089844 287.707031 141.375 287.3125 138.558594 C 286.917969 135.742188 287.082031 132.878906 287.796875 130.125 C 288.511719 127.371094 289.757812 124.785156 291.472656 122.515625 C 293.183594 120.246094 295.328125 118.335938 297.78125 116.894531 C 300.234375 115.453125 302.945312 114.507812 305.761719 114.113281 C 308.578125 113.722656 311.445312 113.886719 314.199219 114.601562 C 316.097656 115.097656 317.917969 115.847656 319.609375 116.828125 C 322.796875 114.976562 326.503906 113.917969 330.457031 113.917969 C 342.414062 113.917969 352.105469 123.609375 352.105469 135.5625 C 352.105469 147.519531 342.414062 157.210938 330.457031 157.210938 Z M 315.984375 119.464844 L 315.988281 119.460938 C 312.984375 118.109375 309.632812 117.621094 306.320312 118.082031 C 301.683594 118.730469 297.492188 121.195312 294.675781 124.929688 C 291.855469 128.667969 290.632812 133.371094 291.28125 138.007812 C 291.929688 142.644531 294.394531 146.832031 298.132812 149.652344 C 301.867188 152.472656 306.570312 153.691406 311.207031 153.042969 C 315.84375 152.394531 320.035156 149.933594 322.851562 146.195312 C 325.671875 142.460938 326.894531 137.753906 326.246094 133.117188 C 325.945312 130.980469 325.261719 128.9375 324.242188 127.078125 C 322.394531 123.726562 319.492188 121.039062 315.984375 119.464844 Z M 292.847656 165.484375 C 292.285156 165.070312 291.605469 164.863281 290.804688 164.863281 C 290.082031 164.863281 289.441406 165.023438 288.882812 165.347656 C 288.324219 165.671875 287.886719 166.136719 287.574219 166.75 C 287.261719 167.359375 287.105469 168.082031 287.105469 168.910156 C 287.105469 169.726562 287.261719 170.445312 287.574219 171.054688 C 287.886719 171.667969 288.324219 172.136719 288.890625 172.464844 C 289.453125 172.792969 290.089844 172.957031 290.804688 172.957031 C 291.605469 172.957031 292.285156 172.75 292.847656 172.335938 C 293.414062 171.921875 293.800781 171.371094 294.011719 170.6875 L 294.011719 172.855469 L 295.007812 172.855469 L 295.007812 164.964844 L 294.011719 164.964844 L 294.011719 167.132812 C 293.800781 166.449219 293.414062 165.898438 292.847656 165.484375 Z M 288.933594 166.605469 C 289.46875 166.042969 290.175781 165.757812 291.0625 165.757812 C 291.621094 165.757812 292.125 165.890625 292.574219 166.148438 C 293.023438 166.410156 293.375 166.777344 293.628906 167.253906 C 293.882812 167.730469 294.011719 168.285156 294.011719 168.910156 C 294.011719 169.535156 293.882812 170.085938 293.628906 170.566406 C 293.375 171.042969 293.023438 171.410156 292.574219 171.667969 C 292.125 171.929688 291.621094 172.058594 291.0625 172.058594 C 290.175781 172.058594 289.46875 171.777344 288.933594 171.214844 C 288.398438 170.652344 288.128906 169.882812 288.128906 168.910156 C 288.128906 167.9375 288.398438 167.167969 288.933594 166.605469 Z M 303.339844 165.347656 C 302.785156 165.023438 302.148438 164.863281 301.425781 164.863281 C 300.617188 164.863281 299.933594 165.070312 299.371094 165.484375 C 298.8125 165.898438 298.429688 166.449219 298.21875 167.132812 L 298.21875 164.964844 L 297.207031 164.964844 L 297.207031 176.582031 L 298.21875 176.582031 L 298.21875 170.6875 C 298.429688 171.371094 298.8125 171.921875 299.371094 172.335938 C 299.933594 172.75 300.617188 172.957031 301.425781 172.957031 C 302.136719 172.957031 302.773438 172.792969 303.332031 172.464844 C 303.890625 172.136719 304.328125 171.667969 304.640625 171.054688 C 304.953125 170.445312 305.109375 169.726562 305.109375 168.910156 C 305.109375 168.082031 304.953125 167.359375 304.640625 166.75 C 304.328125 166.136719 303.894531 165.671875 303.339844 165.347656 Z M 299.640625 166.148438 C 300.089844 165.890625 300.59375 165.757812 301.152344 165.757812 C 302.046875 165.757812 302.757812 166.042969 303.289062 166.605469 C 303.820312 167.167969 304.082031 167.9375 304.082031 168.910156 C 304.082031 169.882812 303.820312 170.652344 303.289062 171.214844 C 302.757812 171.777344 302.046875 172.058594 301.152344 172.058594 C 300.59375 172.058594 300.089844 171.929688 299.640625 171.667969 C 299.191406 171.410156 298.84375 171.042969 298.59375 170.566406 C 298.34375 170.085938 298.21875 169.535156 298.21875 168.910156 C 298.21875 168.285156 298.34375 167.730469 298.59375 167.253906 C 298.84375 166.777344 299.191406 166.410156 299.640625 166.148438 Z M 313.066406 165.347656 C 312.511719 165.023438 311.871094 164.863281 311.152344 164.863281 C 310.339844 164.863281 309.65625 165.070312 309.097656 165.484375 C 308.539062 165.898438 308.15625 166.449219 307.941406 167.132812 L 307.941406 164.964844 L 306.929688 164.964844 L 306.929688 176.582031 L 307.941406 176.582031 L 307.941406 170.6875 C 308.15625 171.371094 308.539062 171.921875 309.097656 172.335938 C 309.65625 172.75 310.339844 172.957031 311.152344 172.957031 C 311.863281 172.957031 312.5 172.792969 313.058594 172.464844 C 313.617188 172.136719 314.054688 171.667969 314.367188 171.054688 C 314.679688 170.445312 314.835938 169.726562 314.835938 168.910156 C 314.835938 168.082031 314.679688 167.359375 314.367188 166.75 C 314.054688 166.136719 313.621094 165.671875 313.066406 165.347656 Z M 309.367188 166.148438 C 309.8125 165.890625 310.316406 165.757812 310.875 165.757812 C 311.773438 165.757812 312.484375 166.042969 313.015625 166.605469 C 313.542969 167.167969 313.808594 167.9375 313.808594 168.910156 C 313.808594 169.882812 313.542969 170.652344 313.015625 171.214844 C 312.484375 171.777344 311.773438 172.058594 310.875 172.058594 C 310.316406 172.058594 309.8125 171.929688 309.367188 171.667969 C 308.917969 171.410156 308.570312 171.042969 308.320312 170.566406 C 308.066406 170.085938 307.941406 169.535156 307.941406 168.910156 C 307.941406 168.285156 308.066406 167.730469 308.320312 167.253906 C 308.570312 166.777344 308.917969 166.410156 309.367188 166.148438 Z M 327.941406 164.847656 L 326.035156 164.847656 L 324.71875 171.035156 L 322.929688 164.847656 L 320.773438 164.847656 L 318.996094 171.035156 L 317.695312 164.847656 L 315.660156 164.847656 L 317.796875 172.855469 L 320.050781 172.855469 L 321.816406 167.03125 L 323.535156 172.855469 L 325.789062 172.855469 Z M 332.175781 165.175781 C 331.683594 165.46875 331.289062 165.871094 330.992188 166.378906 L 330.992188 164.847656 L 328.953125 164.847656 L 328.953125 172.855469 L 330.992188 172.855469 L 330.992188 168.996094 C 330.992188 167.609375 331.738281 166.914062 333.230469 166.914062 L 333.824219 166.914062 L 333.824219 164.734375 C 333.21875 164.734375 332.667969 164.878906 332.175781 165.175781 Z M 335.066406 161.75 C 334.835938 161.957031 334.71875 162.222656 334.71875 162.550781 C 334.71875 162.867188 334.835938 163.132812 335.066406 163.339844 C 335.296875 163.546875 335.601562 163.648438 335.976562 163.648438 C 336.351562 163.648438 336.65625 163.546875 336.886719 163.339844 C 337.117188 163.132812 337.234375 162.867188 337.234375 162.550781 C 337.234375 162.222656 337.117188 161.957031 336.886719 161.75 C 336.65625 161.542969 336.351562 161.4375 335.976562 161.4375 C 335.601562 161.4375 335.296875 161.542969 335.066406 161.75 Z M 336.988281 164.847656 L 334.953125 164.847656 L 334.953125 172.855469 L 336.988281 172.855469 Z M 343.117188 171.105469 L 342.320312 171.105469 C 341.957031 171.105469 341.695312 171.027344 341.539062 170.875 C 341.386719 170.722656 341.308594 170.453125 341.308594 170.066406 L 341.308594 166.570312 L 343.101562 166.570312 L 343.101562 164.847656 L 341.308594 164.847656 L 341.308594 162.871094 L 339.273438 162.871094 L 339.273438 164.847656 L 338.160156 164.847656 L 338.160156 166.570312 L 339.273438 166.570312 L 339.273438 170.039062 C 339.273438 171.046875 339.511719 171.769531 339.988281 172.203125 C 340.464844 172.636719 341.148438 172.855469 342.046875 172.855469 L 343.117188 172.855469 Z M 352.03125 169.242188 C 352.082031 168.980469 352.105469 168.75 352.105469 168.546875 C 352.105469 167.816406 351.941406 167.164062 351.621094 166.589844 C 351.296875 166.015625 350.839844 165.566406 350.246094 165.238281 C 349.65625 164.910156 348.964844 164.75 348.175781 164.75 C 347.394531 164.75 346.699219 164.910156 346.09375 165.238281 C 345.484375 165.566406 345.015625 166.042969 344.675781 166.664062 C 344.339844 167.285156 344.171875 168.015625 344.171875 168.851562 C 344.171875 169.691406 344.339844 170.417969 344.675781 171.035156 C 345.015625 171.652344 345.484375 172.125 346.09375 172.457031 C 346.699219 172.789062 347.394531 172.957031 348.175781 172.957031 C 348.839844 172.957031 349.441406 172.832031 349.988281 172.582031 C 350.53125 172.332031 350.976562 171.984375 351.324219 171.539062 C 351.671875 171.097656 351.898438 170.597656 352.003906 170.039062 L 349.847656 170.039062 C 349.761719 170.433594 349.5625 170.746094 349.25 170.976562 C 348.9375 171.207031 348.542969 171.324219 348.074219 171.324219 C 347.542969 171.324219 347.101562 171.15625 346.742188 170.816406 C 346.386719 170.480469 346.195312 169.957031 346.164062 169.242188 Z M 349.539062 166.859375 C 349.910156 167.195312 350.082031 167.691406 350.050781 168.347656 L 346.164062 168.347656 C 346.203125 167.691406 346.410156 167.195312 346.785156 166.859375 C 347.164062 166.519531 347.625 166.351562 348.175781 166.351562 C 348.714844 166.351562 349.167969 166.519531 349.539062 166.859375 Z M 349.539062 166.859375 " fill-opacity="1" fill-rule="evenodd"/><path fill="#ff1616" d="M 309.34375 128.074219 C 309.316406 128.136719 308.988281 129.4375 308.628906 130.980469 C 308.261719 132.523438 307.675781 134.957031 307.34375 136.394531 C 306.707031 139.035156 306.324219 140.765625 306.324219 140.996094 C 306.324219 141.058594 306.71875 141.109375 307.203125 141.109375 L 308.082031 141.109375 L 308.476562 139.351562 C 308.707031 138.394531 309.214844 136.203125 309.625 134.484375 C 310.03125 132.761719 310.527344 130.671875 310.71875 129.832031 C 310.910156 128.992188 311.101562 128.226562 311.140625 128.136719 C 311.179688 128.023438 310.960938 127.984375 310.300781 127.984375 C 309.800781 127.984375 309.367188 128.023438 309.34375 128.074219 Z M 302.5 133.59375 L 301.328125 134.867188 L 301.671875 135.273438 C 301.863281 135.503906 302.386719 136.078125 302.832031 136.546875 L 303.648438 137.414062 L 305.96875 137.414062 L 304.871094 136.230469 C 304.273438 135.59375 303.773438 134.980469 303.773438 134.90625 C 303.773438 134.816406 304.234375 134.242188 304.792969 133.628906 C 305.355469 133.007812 305.8125 132.46875 305.8125 132.40625 C 305.8125 132.355469 305.328125 132.316406 304.742188 132.316406 L 303.6875 132.316406 Z M 311.421875 132.394531 C 311.421875 132.433594 311.636719 132.675781 311.90625 132.941406 C 312.898438 133.9375 313.601562 134.777344 313.5625 134.941406 C 313.535156 135.03125 313.050781 135.628906 312.464844 136.253906 L 311.410156 137.414062 L 312.59375 137.414062 L 313.777344 137.402344 L 314.859375 136.21875 C 315.460938 135.554688 315.945312 134.96875 315.945312 134.890625 C 315.945312 134.828125 315.433594 134.230469 314.796875 133.554688 L 313.652344 132.316406 L 312.542969 132.316406 C 311.917969 132.316406 311.421875 132.355469 311.421875 132.394531 Z M 311.421875 132.394531 " fill-opacity="1" fill-rule="nonzero"/><path fill="#2680f8" d="M 108.6875 345.507812 L 144.5625 345.507812 C 145.433594 345.519531 146.179688 344.875 146.324219 343.992188 L 153.804688 296.792969 C 153.957031 295.808594 153.304688 294.878906 152.347656 294.722656 C 152.25 294.707031 152.152344 294.699219 152.039062 294.699219 L 100.628906 294.679688 C 99.660156 294.667969 98.851562 295.460938 98.84375 296.46875 C 98.84375 296.570312 98.855469 296.683594 98.863281 296.785156 L 106.34375 343.449219 C 106.53125 344.621094 107.523438 345.496094 108.6875 345.507812 Z M 134.890625 311.753906 L 132.117188 328.398438 L 120.664062 328.398438 L 117.566406 311.753906 Z M 134.890625 311.753906 " fill-opacity="1" fill-rule="nonzero"/><g clip-path="url(#id38)"><path fill="#000000" d="M 144.9375 347.367188 L 107.730469 347.367188 C 105.613281 347.367188 103.792969 345.789062 103.492188 343.695312 L 96.875 297.707031 C 96.699219 296.488281 97.0625 295.25 97.863281 294.3125 C 98.679688 293.363281 99.863281 292.820312 101.113281 292.820312 L 151.554688 292.820312 C 152.804688 292.820312 153.988281 293.363281 154.804688 294.3125 C 155.609375 295.25 155.96875 296.488281 155.792969 297.707031 L 149.175781 343.699219 C 148.875 345.789062 147.058594 347.367188 144.9375 347.367188 Z M 101.113281 296.539062 C 100.867188 296.539062 100.71875 296.667969 100.648438 296.746094 C 100.578125 296.832031 100.496094 296.976562 100.523438 297.175781 L 107.140625 343.164062 C 107.183594 343.441406 107.433594 343.648438 107.730469 343.648438 L 144.941406 343.648438 C 145.234375 343.648438 145.488281 343.441406 145.527344 343.164062 L 152.144531 297.175781 C 152.171875 296.980469 152.089844 296.832031 152.015625 296.75 C 151.949219 296.667969 151.800781 296.539062 151.554688 296.539062 Z M 101.113281 296.539062 " fill-opacity="1" fill-rule="nonzero"/></g><path fill="#000000" d="M 131.644531 330.011719 L 121.023438 330.011719 C 120.125 330.011719 119.355469 329.355469 119.207031 328.460938 L 116.527344 312.34375 C 116.4375 311.800781 116.585938 311.25 116.9375 310.835938 C 117.289062 310.417969 117.800781 310.175781 118.34375 310.175781 L 134.324219 310.175781 C 134.867188 310.175781 135.382812 310.417969 135.730469 310.835938 C 136.078125 311.253906 136.230469 311.804688 136.140625 312.34375 L 133.460938 328.460938 C 133.3125 329.355469 132.542969 330.011719 131.644531 330.011719 Z M 122.585938 326.292969 L 130.085938 326.292969 L 132.148438 313.894531 L 120.523438 313.894531 Z M 122.585938 326.292969 " fill-opacity="1" fill-rule="nonzero"/><g clip-path="url(#id39)"><path fill="#f06292" d="M 344.378906 35.683594 C 342.503906 35.691406 340.882812 36.140625 339.519531 36.808594 C 339.023438 35.820312 338.519531 34.949219 338.433594 34.300781 C 338.335938 33.546875 338.222656 33.09375 338.339844 32.195312 C 338.460938 31.296875 338.984375 30.019531 338.976562 29.925781 C 338.96875 29.828125 338.859375 29.371094 337.777344 29.363281 C 336.695312 29.355469 335.769531 29.570312 335.664062 29.855469 C 335.554688 30.136719 335.34375 30.777344 335.214844 31.445312 C 335.027344 32.421875 333.058594 35.90625 331.941406 37.726562 C 331.574219 37.015625 331.261719 36.386719 331.199219 35.894531 C 331.101562 35.136719 330.984375 34.6875 331.105469 33.785156 C 331.222656 32.886719 331.746094 31.613281 331.738281 31.515625 C 331.734375 31.421875 331.621094 30.960938 330.542969 30.953125 C 329.460938 30.945312 328.535156 31.160156 328.425781 31.445312 C 328.320312 31.730469 328.203125 32.394531 327.980469 33.039062 C 327.757812 33.679688 325.140625 39.488281 324.457031 40.996094 C 324.105469 41.761719 323.800781 42.378906 323.585938 42.800781 C 323.585938 42.796875 323.585938 42.796875 323.585938 42.796875 C 323.585938 42.796875 323.574219 42.824219 323.550781 42.871094 C 323.367188 43.230469 323.257812 43.429688 323.257812 43.429688 C 323.257812 43.429688 323.257812 43.429688 323.261719 43.4375 C 323.117188 43.699219 322.960938 43.941406 322.882812 43.941406 C 322.828125 43.941406 322.722656 43.242188 322.90625 42.28125 C 323.296875 40.265625 324.230469 37.125 324.222656 37.015625 C 324.21875 36.957031 324.398438 36.410156 323.613281 36.125 C 322.847656 35.847656 322.578125 36.3125 322.507812 36.3125 C 322.441406 36.3125 322.390625 36.476562 322.390625 36.476562 C 322.390625 36.476562 323.238281 32.941406 320.769531 32.941406 C 319.222656 32.941406 317.082031 34.625 316.027344 36.152344 C 315.363281 36.511719 313.9375 37.289062 312.429688 38.113281 C 311.847656 38.433594 311.253906 38.757812 310.695312 39.066406 C 310.65625 39.023438 310.617188 38.980469 310.578125 38.9375 C 307.582031 35.753906 302.042969 33.503906 302.273438 29.21875 C 302.359375 27.664062 302.902344 23.566406 312.921875 18.59375 C 321.125 14.523438 327.695312 15.644531 328.828125 18.125 C 330.449219 21.675781 325.320312 28.269531 316.796875 29.21875 C 313.550781 29.582031 311.839844 28.328125 311.417969 27.863281 C 310.96875 27.371094 310.902344 27.351562 310.734375 27.441406 C 310.464844 27.59375 310.636719 28.027344 310.734375 28.285156 C 310.988281 28.945312 312.03125 30.113281 313.8125 30.695312 C 315.378906 31.207031 319.191406 31.488281 323.800781 29.710938 C 328.964844 27.722656 332.996094 22.191406 331.808594 17.566406 C 330.605469 12.863281 322.773438 11.316406 315.363281 13.9375 C 310.945312 15.5 306.171875 17.949219 302.738281 21.148438 C 298.65625 24.949219 298.003906 28.261719 298.273438 29.644531 C 299.226562 34.558594 306.027344 37.757812 308.75 40.128906 C 308.617188 40.203125 308.488281 40.273438 308.375 40.335938 C 307.007812 41.007812 301.824219 43.710938 300.527344 46.5625 C 299.058594 49.800781 300.761719 52.125 301.890625 52.4375 C 305.386719 53.40625 308.976562 51.664062 310.90625 48.800781 C 312.835938 45.933594 312.601562 42.203125 311.714844 40.503906 C 311.703125 40.480469 311.691406 40.460938 311.679688 40.441406 C 312.03125 40.230469 312.394531 40.019531 312.75 39.8125 C 313.445312 39.40625 314.125 39.027344 314.71875 38.707031 C 314.386719 39.609375 314.144531 40.691406 314.015625 42.257812 C 313.867188 44.097656 314.625 46.472656 315.617188 47.40625 C 316.050781 47.816406 316.574219 47.828125 316.90625 47.828125 C 318.058594 47.828125 318.585938 46.875 319.164062 45.746094 C 319.875 44.359375 320.503906 42.75 320.503906 42.75 C 320.503906 42.75 319.714844 47.101562 321.867188 47.101562 C 322.652344 47.101562 323.441406 46.089844 323.792969 45.574219 C 323.792969 45.578125 323.792969 45.582031 323.792969 45.582031 C 323.792969 45.582031 323.8125 45.546875 323.855469 45.480469 C 323.9375 45.355469 323.984375 45.277344 323.984375 45.277344 C 323.984375 45.277344 323.984375 45.269531 323.984375 45.253906 C 324.300781 44.710938 325 43.464844 326.050781 41.414062 C 327.40625 38.765625 328.703125 35.449219 328.703125 35.449219 C 328.703125 35.449219 328.824219 36.257812 329.222656 37.601562 C 329.453125 38.390625 329.949219 39.261719 330.339844 40.101562 C 330.027344 40.535156 329.832031 40.785156 329.832031 40.785156 C 329.832031 40.785156 329.835938 40.789062 329.839844 40.796875 C 329.585938 41.128906 329.304688 41.488281 329.011719 41.839844 C 327.941406 43.105469 326.667969 44.554688 326.496094 44.972656 C 326.292969 45.464844 326.34375 45.828125 326.730469 46.121094 C 327.015625 46.332031 327.519531 46.367188 328.046875 46.332031 C 329.007812 46.269531 329.683594 46.03125 330.019531 45.886719 C 330.539062 45.703125 331.144531 45.414062 331.714844 45 C 332.761719 44.230469 333.394531 43.132812 333.335938 41.675781 C 333.300781 40.871094 333.042969 40.078125 332.71875 39.328125 C 332.8125 39.191406 332.910156 39.050781 333.003906 38.914062 C 334.660156 36.503906 335.941406 33.859375 335.941406 33.859375 C 335.941406 33.859375 336.0625 34.667969 336.460938 36.011719 C 336.660156 36.691406 337.054688 37.433594 337.410156 38.160156 C 335.855469 39.417969 334.890625 40.878906 334.558594 41.839844 C 333.9375 43.613281 334.421875 44.417969 335.332031 44.601562 C 335.746094 44.683594 336.328125 44.496094 336.765625 44.3125 C 337.308594 44.132812 337.964844 43.832031 338.574219 43.382812 C 339.625 42.613281 340.636719 41.539062 340.574219 40.082031 C 340.546875 39.421875 340.367188 38.761719 340.121094 38.132812 C 341.4375 37.585938 343.144531 37.28125 345.320312 37.53125 C 349.984375 38.074219 350.898438 40.976562 350.726562 42.191406 C 350.550781 43.402344 349.570312 44.070312 349.246094 44.273438 C 348.917969 44.476562 348.816406 44.546875 348.84375 44.695312 C 348.882812 44.910156 349.035156 44.90625 349.316406 44.855469 C 349.699219 44.792969 351.765625 43.871094 351.851562 41.628906 C 351.964844 38.78125 349.226562 35.65625 344.378906 35.683594 Z M 308.421875 47.753906 C 306.878906 49.433594 304.71875 50.066406 303.792969 49.53125 C 302.792969 48.957031 303.191406 46.484375 305.085938 44.703125 C 306.242188 43.617188 307.734375 42.617188 308.722656 42 C 308.949219 41.867188 309.28125 41.667969 309.683594 41.425781 C 309.75 41.390625 309.785156 41.371094 309.785156 41.371094 L 309.785156 41.367188 C 309.863281 41.320312 309.941406 41.273438 310.023438 41.222656 C 310.714844 43.761719 310.046875 45.992188 308.421875 47.753906 Z M 319.679688 40.132812 C 319.144531 41.441406 318.015625 44.785156 317.332031 44.605469 C 316.742188 44.449219 316.382812 41.910156 317.214844 39.40625 C 317.628906 38.148438 318.523438 36.644531 319.046875 36.058594 C 319.890625 35.121094 320.820312 34.8125 321.042969 35.195312 C 321.332031 35.679688 320.019531 39.3125 319.679688 40.132812 Z M 328.980469 44.550781 C 328.753906 44.671875 328.542969 44.746094 328.445312 44.6875 C 328.375 44.644531 328.539062 44.488281 328.539062 44.488281 C 328.539062 44.488281 329.703125 43.242188 330.160156 42.675781 C 330.429688 42.34375 330.738281 41.953125 331.074219 41.515625 C 331.074219 41.558594 331.078125 41.605469 331.078125 41.644531 C 331.074219 43.140625 329.625 44.148438 328.980469 44.550781 Z M 336.144531 42.925781 C 335.972656 42.804688 336.003906 42.414062 336.5625 41.199219 C 336.78125 40.722656 337.285156 39.921875 338.152344 39.152344 C 338.253906 39.46875 338.316406 39.773438 338.316406 40.054688 C 338.304688 41.933594 336.957031 42.632812 336.144531 42.925781 Z M 336.144531 42.925781 " fill-opacity="1" fill-rule="nonzero"/></g><g clip-path="url(#id40)"><g clip-path="url(#id41)"><g clip-path="url(#id42)"><g clip-path="url(#id43)"><path fill="#000000" d="M 25.921875 314.496094 L 36.203125 309.773438 L 36.582031 310.605469 L 27.246094 314.890625 L 30.113281 321.136719 L 38.894531 317.105469 L 39.273438 317.9375 L 30.492188 321.96875 L 33.640625 328.824219 L 43.085938 324.488281 L 43.464844 325.320312 L 33.078125 330.085938 L 25.921875 314.492188 Z M 37.121094 309.351562 L 38.214844 308.851562 L 46.203125 313.484375 L 48.003906 304.359375 L 50.734375 292.558594 L 47.15625 313.921875 L 56.53125 319.320312 L 55.394531 319.84375 L 46.863281 314.925781 L 45.007812 324.609375 L 43.894531 325.121094 L 45.957031 314.472656 Z M 50.160156 304.371094 L 49.78125 303.542969 L 61.496094 298.164062 L 61.878906 298.992188 L 56.480469 301.472656 L 63.257812 316.234375 L 62.316406 316.667969 L 55.539062 301.902344 Z M 13.058594 320.398438 L 14.238281 319.855469 L 41.8125 337.085938 L 30.925781 331.074219 L 14.585938 321.125 L 21.160156 335.558594 L 20.21875 335.992188 L 13.0625 320.398438 Z M 68.0625 312.722656 C 67.871094 312.808594 67.65625 312.722656 67.566406 312.527344 C 67.476562 312.332031 67.550781 312.113281 67.742188 312.027344 C 67.9375 311.9375 68.152344 312.023438 68.242188 312.21875 C 68.332031 312.414062 68.257812 312.632812 68.0625 312.722656 Z M 68.570312 311.382812 L 69.074219 311.148438 C 69.207031 311.425781 69.492188 311.519531 69.785156 311.382812 C 70.113281 311.234375 70.207031 310.949219 70.035156 310.574219 L 68.945312 308.195312 L 69.457031 307.960938 L 70.550781 310.339844 C 70.859375 311.015625 70.652344 311.582031 70.015625 311.875 C 69.417969 312.148438 68.835938 311.960938 68.570312 311.382812 Z M 71.257812 310.109375 L 71.765625 309.875 C 71.957031 310.175781 72.355469 310.238281 72.800781 310.035156 C 73.210938 309.84375 73.414062 309.492188 73.277344 309.191406 C 73.160156 308.9375 72.898438 308.871094 72.410156 308.964844 L 71.9375 309.054688 C 71.273438 309.1875 70.867188 309.019531 70.640625 308.527344 C 70.363281 307.925781 70.664062 307.308594 71.382812 306.976562 C 72.054688 306.667969 72.730469 306.839844 73.019531 307.394531 L 72.519531 307.625 C 72.328125 307.335938 71.972656 307.265625 71.589844 307.441406 C 71.183594 307.628906 71.003906 307.949219 71.144531 308.253906 C 71.253906 308.492188 71.492188 308.550781 71.96875 308.453125 L 72.375 308.378906 C 73.128906 308.226562 73.535156 308.378906 73.765625 308.886719 C 74.0625 309.527344 73.757812 310.15625 72.972656 310.515625 C 72.238281 310.851562 71.570312 310.695312 71.257812 310.109375 Z M 71.257812 310.109375 " fill-opacity="1" fill-rule="nonzero"/></g></g></g></g><g clip-path="url(#id44)"><path fill="#0277bd" d="M 259.460938 310.824219 C 257.757812 310.832031 256.578125 310.980469 255.148438 311.222656 C 250.9375 311.949219 250.167969 313.476562 250.167969 316.292969 L 250.167969 320.59375 L 260.023438 320.59375 L 260.023438 322.765625 L 245.03125 322.765625 C 242.140625 322.765625 239.617188 324.113281 238.816406 327.347656 C 237.910156 331.054688 237.871094 333.378906 238.816406 337.25 C 239.53125 340.140625 241.113281 342.304688 244 342.304688 L 247.980469 342.304688 L 247.980469 336.765625 C 247.980469 333.546875 250.921875 330.363281 254.292969 330.363281 L 262.214844 330.363281 C 264.980469 330.363281 267.691406 328.34375 267.691406 325.613281 L 267.691406 316.292969 C 267.691406 313.644531 265.765625 311.664062 263.074219 311.222656 C 263.140625 311.214844 261.148438 310.820312 259.460938 310.824219 Z M 254.003906 315.167969 C 254.902344 315.167969 255.644531 315.902344 255.644531 316.796875 C 255.644531 317.703125 254.902344 318.425781 254.003906 318.425781 C 253.085938 318.425781 252.359375 317.703125 252.359375 316.796875 C 252.359375 315.90625 253.085938 315.167969 254.003906 315.167969 Z M 254.003906 315.167969 " fill-opacity="1" fill-rule="nonzero"/></g><g clip-path="url(#id45)"><path fill="#ffc107" d="M 258.398438 352.074219 C 260.101562 352.070312 261.285156 351.921875 262.710938 351.675781 C 266.925781 350.949219 267.691406 349.421875 267.691406 346.609375 L 267.691406 342.304688 L 257.835938 342.304688 L 257.835938 340.132812 L 272.832031 340.132812 C 275.71875 340.132812 278.246094 338.785156 279.046875 335.554688 C 279.953125 331.84375 279.992188 329.523438 279.046875 325.648438 C 278.328125 322.761719 276.746094 320.59375 273.859375 320.59375 L 269.882812 320.59375 L 269.882812 326.136719 C 269.882812 329.355469 266.941406 332.535156 263.570312 332.535156 L 255.644531 332.535156 C 252.882812 332.535156 250.167969 334.558594 250.167969 337.289062 L 250.167969 346.609375 C 250.167969 349.253906 252.09375 351.234375 254.789062 351.679688 C 254.722656 351.6875 256.710938 352.082031 258.398438 352.074219 Z M 263.859375 347.734375 C 262.960938 347.734375 262.214844 347 262.214844 346.101562 C 262.214844 345.199219 262.960938 344.476562 263.859375 344.476562 C 264.777344 344.476562 265.503906 345.199219 265.503906 346.101562 C 265.503906 346.996094 264.773438 347.734375 263.859375 347.734375 Z M 263.859375 347.734375 " fill-opacity="1" fill-rule="nonzero"/></g><g clip-path="url(#id46)"><path fill="#5d4037" d="M 252.214844 211.007812 C 252.214844 230.996094 234.617188 237.039062 234.617188 237.039062 C 234.617188 237.039062 217.015625 230.996094 217.015625 211.007812 C 217.015625 208.570312 217.210938 206.523438 217.40625 204.863281 C 217.699219 202.425781 219.363281 200.476562 221.710938 199.890625 C 224.742188 199.015625 229.53125 198.039062 234.617188 198.039062 C 239.699219 198.039062 244.492188 199.015625 247.621094 199.890625 C 249.96875 200.476562 251.628906 202.523438 251.921875 204.863281 C 252.019531 206.523438 252.214844 208.667969 252.214844 211.007812 Z M 252.214844 211.007812 " fill-opacity="1" fill-rule="nonzero"/><path fill="#4caf50" d="M 234.617188 200.964844 C 239.40625 200.964844 243.90625 201.9375 246.839844 202.71875 C 248.011719 203.011719 248.792969 203.988281 248.988281 205.253906 C 249.183594 207.105469 249.28125 209.058594 249.28125 211.007812 C 249.28125 226.214844 238.039062 232.359375 234.617188 233.820312 C 231.195312 232.261719 219.949219 226.121094 219.949219 211.007812 C 219.949219 209.058594 220.046875 207.105469 220.242188 205.253906 C 220.339844 203.988281 221.21875 203.011719 222.394531 202.71875 C 225.328125 201.9375 229.824219 200.964844 234.617188 200.964844 M 234.617188 198.039062 C 229.53125 198.039062 224.742188 199.015625 221.613281 199.890625 C 219.363281 200.476562 217.601562 202.523438 217.40625 204.863281 C 217.210938 206.523438 217.015625 208.667969 217.015625 211.007812 C 217.015625 230.996094 234.617188 237.039062 234.617188 237.039062 C 234.617188 237.039062 252.214844 230.996094 252.214844 211.007812 C 252.214844 208.570312 252.019531 206.523438 251.824219 204.863281 C 251.53125 202.425781 249.871094 200.476562 247.523438 199.890625 C 244.492188 199.015625 239.699219 198.039062 234.617188 198.039062 Z M 234.617188 198.039062 " fill-opacity="1" fill-rule="nonzero"/></g><path fill="#dcedc8" d="M 233.636719 221.4375 L 235.59375 221.4375 L 235.59375 229.238281 L 233.636719 229.238281 Z M 233.636719 221.4375 " fill-opacity="1" fill-rule="nonzero"/><path fill="#4caf50" d="M 234.617188 203.890625 C 234.617188 203.890625 228.75 208.765625 228.75 216.5625 C 228.75 221.632812 231.976562 224.851562 233.636719 226.3125 L 234.617188 223.390625 L 235.59375 226.3125 C 237.257812 224.851562 240.484375 221.632812 240.484375 216.5625 C 240.484375 208.765625 234.617188 203.890625 234.617188 203.890625 Z M 234.617188 203.890625 " fill-opacity="1" fill-rule="nonzero"/><path fill="#81c784" d="M 234.617188 203.890625 C 234.617188 203.890625 228.75 208.765625 228.75 216.5625 C 228.75 221.632812 231.976562 224.851562 233.636719 226.3125 L 234.617188 223.390625 Z M 234.617188 203.890625 " fill-opacity="1" fill-rule="nonzero"/><g clip-path="url(#id47)"><path fill="#f2f2f2" d="M 139.417969 85.332031 C 139.417969 96.722656 130.183594 105.957031 118.792969 105.957031 C 108.285156 105.957031 99.613281 98.09375 98.332031 87.933594 C 98.226562 87.082031 98.167969 86.210938 98.167969 85.332031 C 98.167969 83.714844 98.355469 82.144531 98.707031 80.636719 C 100.832031 71.507812 109.019531 64.707031 118.792969 64.707031 C 128.546875 64.707031 136.71875 71.472656 138.867188 80.570312 C 139.148438 81.757812 139.324219 82.988281 139.390625 84.246094 C 139.410156 84.605469 139.417969 84.964844 139.417969 85.332031 Z M 139.417969 85.332031 " fill-opacity="1" fill-rule="nonzero"/></g><path fill="#3b8739" d="M 117.761719 86.988281 L 117.761719 81.625 L 113.117188 78.941406 L 108.476562 81.625 L 108.476562 86.988281 L 113.117188 89.667969 Z M 117.761719 86.988281 " fill-opacity="1" fill-rule="nonzero"/><g clip-path="url(#id48)"><path fill="#333333" d="M 136.050781 86.171875 L 139.078125 87.921875 L 136.050781 89.667969 L 131.410156 86.988281 L 131.410156 81.625 L 136.050781 78.941406 L 138.867188 80.570312 C 139.148438 81.757812 139.324219 82.988281 139.390625 84.246094 L 137.671875 85.238281 L 137.671875 83.371094 L 136.050781 82.4375 L 134.433594 83.371094 L 134.433594 85.238281 Z M 136.050781 86.171875 " fill-opacity="1" fill-rule="nonzero"/></g><path fill="#66a060" d="M 136.953125 84.824219 L 136.953125 83.785156 L 136.050781 83.265625 L 135.152344 83.785156 L 135.152344 84.824219 L 136.050781 85.347656 Z M 136.953125 84.824219 " fill-opacity="1" fill-rule="nonzero"/><g clip-path="url(#id49)"><path fill="#333333" d="M 106.28125 81.625 L 106.28125 88.695312 L 103.183594 86.929688 L 103.183594 83.304688 L 101.636719 82.410156 L 100.089844 83.304688 L 100.089844 86.929688 L 98.332031 87.933594 C 98.226562 87.082031 98.167969 86.210938 98.167969 85.332031 C 98.167969 83.714844 98.355469 82.144531 98.707031 80.636719 L 101.636719 78.941406 Z M 106.28125 81.625 " fill-opacity="1" fill-rule="nonzero"/></g><path fill="#6da75d" d="M 113.117188 78.941406 L 117.761719 86.984375 L 113.117188 89.667969 L 108.476562 81.625 Z M 113.117188 78.941406 " fill-opacity="1" fill-rule="nonzero"/><path fill="#55a344" d="M 108.476562 86.988281 L 110.070312 84.386719 L 108.476562 81.625 Z M 108.476562 86.988281 " fill-opacity="1" fill-rule="nonzero"/><path fill="#639d57" d="M 116.214844 84.304688 L 117.761719 81.625 L 113.117188 78.941406 Z M 116.214844 84.304688 " fill-opacity="1" fill-rule="nonzero"/><path fill="#333333" d="M 126.089844 72.726562 L 126.089844 79.84375 L 124.535156 78.941406 L 119.890625 81.625 L 119.890625 86.988281 L 124.535156 89.667969 L 129.175781 86.988281 L 129.175781 74.378906 Z M 126.082031 85.199219 L 124.535156 86.09375 L 122.984375 85.199219 L 122.984375 83.410156 L 124.535156 82.515625 L 126.082031 83.410156 Z M 126.082031 85.199219 " fill-opacity="1" fill-rule="nonzero"/><path fill="#66a060" d="M 120.902344 93.605469 C 120.902344 93.605469 120.808594 92.820312 119.972656 92.820312 C 119.132812 92.820312 118.558594 92.929688 118.558594 93.394531 C 118.558594 93.859375 120.191406 93.859375 120.808594 94.042969 C 121.429688 94.226562 121.976562 94.699219 121.703125 95.539062 C 121.429688 96.375 120.589844 96.46875 119.296875 96.46875 C 118.003906 96.46875 117.710938 95.390625 117.710938 94.972656 L 118.441406 94.972656 C 118.441406 94.972656 118.347656 95.628906 119.207031 95.738281 C 120.0625 95.847656 120.882812 95.910156 120.992188 95.246094 C 121.136719 94.371094 118.222656 94.808594 117.964844 93.953125 C 117.75 93.230469 117.875 92.273438 119.332031 92.128906 C 120.792969 91.984375 121.59375 92.628906 121.59375 93.585938 Z M 120.902344 93.605469 " fill-opacity="1" fill-rule="nonzero"/><path fill="#66a060" d="M 113.859375 97.023438 L 115.46875 97.953125 C 116.28125 98.421875 117.292969 97.835938 117.292969 96.902344 L 117.292969 92.269531 L 116.636719 92.269531 L 116.636719 96.71875 C 116.636719 97.230469 116.082031 97.546875 115.640625 97.292969 L 114.515625 96.644531 L 114.515625 91.894531 L 118.628906 89.519531 L 122.738281 91.894531 L 122.738281 96.644531 L 118.628906 99.015625 L 117.441406 98.332031 L 116.667969 98.644531 L 118.628906 99.777344 L 123.394531 97.023438 L 123.394531 91.515625 L 118.628906 88.761719 L 113.859375 91.515625 Z M 113.859375 97.023438 " fill-opacity="1" fill-rule="nonzero"/><g clip-path="url(#id50)"><path fill="#f03c2e" d="M 348.175781 322.703125 L 333.441406 307.96875 C 333.238281 307.761719 333.003906 307.605469 332.734375 307.496094 C 332.46875 307.386719 332.191406 307.332031 331.90625 307.332031 C 331.617188 307.332031 331.339844 307.386719 331.074219 307.496094 C 330.804688 307.605469 330.570312 307.761719 330.367188 307.96875 L 327.308594 311.027344 L 331.191406 314.90625 C 332.09375 314.589844 333.125 314.808594 333.847656 315.527344 C 334.195312 315.875 334.425781 316.292969 334.535156 316.773438 C 334.648438 317.257812 334.621094 317.730469 334.457031 318.199219 L 338.199219 321.9375 C 339.105469 321.625 340.148438 321.828125 340.871094 322.550781 C 341.113281 322.796875 341.300781 323.074219 341.433594 323.390625 C 341.5625 323.710938 341.628906 324.039062 341.628906 324.382812 C 341.628906 324.726562 341.5625 325.054688 341.433594 325.371094 C 341.300781 325.6875 341.113281 325.96875 340.871094 326.210938 C 340.628906 326.453125 340.347656 326.640625 340.03125 326.773438 C 339.714844 326.902344 339.386719 326.96875 339.042969 326.96875 C 338.699219 326.96875 338.367188 326.902344 338.050781 326.773438 C 337.734375 326.640625 337.457031 326.453125 337.210938 326.210938 C 336.453125 325.449219 336.265625 324.332031 336.648438 323.398438 L 333.160156 319.910156 L 333.160156 329.089844 C 333.414062 329.214844 333.644531 329.378906 333.847656 329.578125 C 334.089844 329.820312 334.277344 330.101562 334.40625 330.417969 C 334.539062 330.734375 334.605469 331.066406 334.605469 331.40625 C 334.605469 331.75 334.539062 332.082031 334.40625 332.398438 C 334.277344 332.714844 334.089844 332.996094 333.847656 333.238281 C 333.605469 333.480469 333.324219 333.667969 333.007812 333.796875 C 332.691406 333.929688 332.359375 333.996094 332.015625 333.996094 C 331.675781 333.996094 331.34375 333.929688 331.027344 333.796875 C 330.710938 333.667969 330.429688 333.480469 330.1875 333.238281 C 329.945312 332.996094 329.757812 332.714844 329.628906 332.398438 C 329.496094 332.082031 329.429688 331.75 329.429688 331.40625 C 329.429688 331.066406 329.496094 330.734375 329.628906 330.417969 C 329.757812 330.101562 329.945312 329.820312 330.1875 329.578125 C 330.4375 329.332031 330.714844 329.140625 331.035156 329.015625 L 331.035156 319.75 C 330.726562 319.621094 330.4375 319.433594 330.1875 319.183594 C 329.816406 318.8125 329.582031 318.371094 329.480469 317.855469 C 329.378906 317.339844 329.429688 316.839844 329.632812 316.355469 L 325.804688 312.53125 L 315.699219 322.625 C 315.496094 322.828125 315.339844 323.0625 315.226562 323.328125 C 315.117188 323.59375 315.0625 323.871094 315.0625 324.160156 C 315.0625 324.449219 315.117188 324.726562 315.226562 324.992188 C 315.339844 325.257812 315.496094 325.492188 315.699219 325.699219 L 330.433594 340.433594 C 330.640625 340.636719 330.875 340.792969 331.140625 340.902344 C 331.40625 341.011719 331.683594 341.070312 331.972656 341.070312 C 332.261719 341.070312 332.539062 341.011719 332.804688 340.902344 C 333.070312 340.792969 333.304688 340.636719 333.507812 340.433594 L 348.175781 325.789062 C 348.378906 325.582031 348.539062 325.347656 348.648438 325.082031 C 348.757812 324.816406 348.8125 324.539062 348.8125 324.25 C 348.8125 323.960938 348.757812 323.683594 348.648438 323.417969 C 348.539062 323.152344 348.378906 322.917969 348.175781 322.714844 " fill-opacity="1" fill-rule="nonzero"/></g><g clip-path="url(#id51)"><path fill="#d50000" d="M 13.210938 181.664062 L 52.171875 181.664062 L 52.171875 195.691406 L 32.691406 195.691406 L 32.691406 198.164062 L 23.761719 198.164062 L 23.761719 195.691406 L 13.210938 195.691406 Z M 13.210938 181.664062 " fill-opacity="1" fill-rule="nonzero"/></g><path fill="#ffffff" d="M 15.644531 193.214844 L 19.703125 193.214844 L 19.703125 186.617188 L 22.140625 186.617188 L 22.140625 193.214844 L 23.761719 193.214844 L 23.761719 184.140625 L 15.644531 184.140625 Z M 26.199219 184.140625 L 26.199219 195.691406 L 30.257812 195.691406 L 30.257812 193.214844 L 34.316406 193.214844 L 34.316406 184.140625 Z M 32.691406 190.742188 L 30.257812 190.742188 L 30.257812 186.617188 L 32.691406 186.617188 Z M 36.75 184.140625 L 36.75 193.214844 L 40.808594 193.214844 L 40.808594 186.617188 L 43.246094 186.617188 L 43.246094 193.214844 L 45.679688 193.214844 L 45.679688 186.617188 L 48.113281 186.617188 L 48.113281 193.214844 L 49.738281 193.214844 L 49.738281 184.140625 Z M 36.75 184.140625 " fill-opacity="1" fill-rule="nonzero"/><g clip-path="url(#id52)"><path fill="#ea4335" d="M 343.050781 210.238281 L 344.398438 210.261719 L 348.054688 206.558594 L 348.230469 204.992188 C 345.332031 202.375 341.503906 200.78125 337.320312 200.78125 C 329.746094 200.78125 323.355469 206 321.464844 213.070312 C 321.863281 212.789062 322.714844 213 322.714844 213 L 330.019531 211.785156 C 330.019531 211.785156 330.394531 211.15625 330.585938 211.1875 C 331.449219 210.226562 332.464844 209.480469 333.640625 208.957031 C 334.8125 208.433594 336.042969 208.171875 337.324219 208.171875 C 339.488281 208.175781 341.484375 208.949219 343.050781 210.230469 Z M 343.050781 210.238281 " fill-opacity="1" fill-rule="nonzero"/></g><g clip-path="url(#id53)"><path fill="#4285f4" d="M 353.1875 213.085938 C 352.335938 209.914062 350.589844 207.117188 348.226562 204.992188 L 343.050781 210.234375 C 345.125 211.929688 346.457031 214.523438 346.457031 217.425781 L 346.457031 218.351562 C 348.972656 218.351562 351.019531 220.429688 351.019531 222.972656 C 351.019531 225.523438 348.96875 227.597656 346.457031 227.597656 L 337.328125 227.597656 L 336.414062 228.527344 L 336.414062 234.074219 L 337.328125 234.996094 L 346.457031 234.996094 C 347.234375 234.996094 348.007812 234.917969 348.769531 234.761719 C 349.535156 234.609375 350.277344 234.378906 350.996094 234.078125 C 351.714844 233.773438 352.398438 233.402344 353.046875 232.964844 C 353.691406 232.527344 354.292969 232.027344 354.84375 231.46875 C 355.394531 230.914062 355.886719 230.304688 356.320312 229.648438 C 356.753906 228.992188 357.117188 228.300781 357.417969 227.574219 C 357.714844 226.84375 357.941406 226.09375 358.09375 225.320312 C 358.246094 224.546875 358.324219 223.765625 358.324219 222.976562 C 358.320312 218.882812 356.289062 215.265625 353.1875 213.085938 Z M 353.1875 213.085938 " fill-opacity="1" fill-rule="nonzero"/></g><path fill="#34a853" d="M 328.191406 235 L 337.316406 235 L 337.316406 227.597656 L 328.191406 227.597656 C 327.539062 227.597656 326.910156 227.460938 326.316406 227.183594 L 324.996094 227.59375 L 321.34375 231.292969 L 321.023438 232.542969 C 322.050781 233.339844 323.179688 233.949219 324.40625 234.367188 C 325.636719 234.789062 326.898438 234.996094 328.191406 234.996094 Z M 328.191406 235 " fill-opacity="1" fill-rule="nonzero"/><g clip-path="url(#id54)"><path fill="#fbbc05" d="M 328.191406 210.957031 C 327.414062 210.960938 326.640625 211.039062 325.878906 211.191406 C 325.113281 211.347656 324.375 211.574219 323.652344 211.878906 C 322.933594 212.179688 322.25 212.550781 321.601562 212.988281 C 320.957031 213.429688 320.355469 213.925781 319.804688 214.484375 C 319.253906 215.042969 318.761719 215.648438 318.328125 216.304688 C 317.898438 216.960938 317.53125 217.652344 317.234375 218.382812 C 316.933594 219.109375 316.707031 219.863281 316.554688 220.636719 C 316.402344 221.410156 316.324219 222.191406 316.324219 222.980469 C 316.324219 226.882812 318.171875 230.355469 321.027344 232.554688 L 326.320312 227.195312 C 325.917969 227.011719 325.550781 226.773438 325.21875 226.484375 C 324.886719 226.195312 324.601562 225.863281 324.359375 225.488281 C 324.121094 225.113281 323.941406 224.714844 323.816406 224.289062 C 323.691406 223.859375 323.628906 223.425781 323.628906 222.980469 C 323.628906 220.429688 325.679688 218.355469 328.191406 218.355469 C 330.042969 218.355469 331.632812 219.488281 332.351562 221.082031 L 337.644531 215.722656 C 335.476562 212.828125 332.046875 210.957031 328.195312 210.957031 Z M 328.191406 210.957031 " fill-opacity="1" fill-rule="nonzero"/></g></svg>