<svg width="743" height="805" viewBox="0 0 743 805" fill="none" xmlns="http://www.w3.org/2000/svg">
<path fill-rule="evenodd" clip-rule="evenodd" d="M467.947 -168.266C576.783 -163.028 691.267 -122.063 757.719 -36.7736C819.162 42.086 777.878 154.062 795.428 252.046C809.538 330.821 862.199 400.697 850.25 479.82C837.013 567.477 794.808 651.128 726.483 708.584C654.923 768.759 560.144 819.321 467.947 801.303C378.588 783.84 350.751 669.31 274.405 620.234C190.871 566.539 45.2348 595.967 7.05166 505.04C-30.3535 415.966 92.0607 337.721 116.57 244.377C143.719 140.979 87.2927 16.0637 156.906 -65.687C229.026 -150.382 356.03 -173.652 467.947 -168.266Z" fill="#FDC435"/>
</svg>
