<svg xmlns="http://www.w3.org/2000/svg" xmlns:xlink="http://www.w3.org/1999/xlink" width="1500" zoomAndPan="magnify" viewBox="0 0 1125 374.999991" height="500" preserveAspectRatio="xMidYMid meet" version="1.0"><defs><g/></defs><rect x="-112.5" width="1350" fill="#ffffff" y="-37.499999" height="449.999989" fill-opacity="1"/><rect x="-112.5" width="1350" fill="#ffffff" y="-37.499999" height="449.999989" fill-opacity="1"/><rect x="-112.5" width="1350" fill="#13100f" y="-37.499999" height="449.999989" fill-opacity="1"/><g fill="#fdd54f" fill-opacity="1"><g transform="translate(393.947573, 111.694239)"><g><path d="M 42.1875 0 L 35.84375 -29.90625 L 35.546875 -29.90625 L 29.203125 0 L 11.84375 0 L 0.359375 -49.109375 L 16.78125 -49.109375 L 22.421875 -21.28125 L 22.703125 -21.28125 L 28.265625 -49.109375 L 43.828125 -49.109375 L 49.765625 -21.28125 L 50.046875 -21.28125 L 55.328125 -49.109375 L 71.03125 -49.109375 L 59.546875 0 Z M 42.1875 0 "/></g></g></g><g fill="#fdd54f" fill-opacity="1"><g transform="translate(465.323968, 111.694239)"><g><path d="M 23.765625 -38.546875 C 30.671875 -38.546875 35.941406 -36.925781 39.578125 -33.6875 C 43.222656 -30.457031 45.046875 -25.507812 45.046875 -18.84375 L 45.046875 -16.421875 L 16.78125 -16.421875 C 16.78125 -13.703125 17.382812 -11.648438 18.59375 -10.265625 C 19.8125 -8.890625 21.726562 -8.203125 24.34375 -8.203125 C 26.71875 -8.203125 28.460938 -8.703125 29.578125 -9.703125 C 30.703125 -10.703125 31.265625 -12.035156 31.265625 -13.703125 L 45.046875 -13.703125 C 45.046875 -9.140625 43.304688 -5.570312 39.828125 -3 C 36.359375 -0.425781 31.289062 0.859375 24.625 0.859375 C 17.632812 0.859375 12.207031 -0.769531 8.34375 -4.03125 C 4.488281 -7.289062 2.5625 -12.226562 2.5625 -18.84375 C 2.5625 -25.320312 4.441406 -30.222656 8.203125 -33.546875 C 11.960938 -36.878906 17.148438 -38.546875 23.765625 -38.546875 Z M 24.34375 -29.484375 C 19.875 -29.484375 17.375 -27.363281 16.84375 -23.125 L 30.703125 -23.125 C 30.703125 -25.082031 30.140625 -26.628906 29.015625 -27.765625 C 27.898438 -28.910156 26.34375 -29.484375 24.34375 -29.484375 Z M 24.34375 -29.484375 "/></g></g></g><g fill="#fdd54f" fill-opacity="1"><g transform="translate(512.932023, 111.694239)"><g><path d="M 18.5625 -34.203125 C 21.269531 -37.097656 24.789062 -38.546875 29.125 -38.546875 C 34.21875 -38.546875 38.144531 -36.890625 40.90625 -33.578125 C 43.664062 -30.273438 45.046875 -25.390625 45.046875 -18.921875 C 45.046875 -12.398438 43.664062 -7.472656 40.90625 -4.140625 C 38.144531 -0.804688 34.21875 0.859375 29.125 0.859375 C 23.894531 0.859375 19.898438 -1.210938 17.140625 -5.359375 L 15.921875 0 L 4.359375 0 L 4.359375 -51.765625 L 18.5625 -51.765625 Z M 24.703125 -28.0625 C 22.609375 -28.0625 21.035156 -27.3125 19.984375 -25.8125 C 18.941406 -24.3125 18.421875 -22.367188 18.421875 -19.984375 L 18.421875 -17.640625 C 18.421875 -15.253906 18.941406 -13.320312 19.984375 -11.84375 C 21.035156 -10.375 22.609375 -9.640625 24.703125 -9.640625 C 28.796875 -9.640625 30.84375 -12.066406 30.84375 -16.921875 L 30.84375 -20.703125 C 30.84375 -25.609375 28.796875 -28.0625 24.703125 -28.0625 Z M 24.703125 -28.0625 "/></g></g></g><g fill="#fdd54f" fill-opacity="1"><g transform="translate(560.540079, 111.694239)"><g/></g></g><g fill="#fdd54f" fill-opacity="1"><g transform="translate(584.308418, 111.694239)"><g><path d="M 26.5625 -49.109375 C 43.738281 -49.109375 52.328125 -40.925781 52.328125 -24.5625 C 52.328125 -8.1875 43.738281 0 26.5625 0 L 5.28125 0 L 5.28125 -49.109375 Z M 21.0625 -11.78125 L 26.265625 -11.78125 C 32.878906 -11.78125 36.1875 -15.328125 36.1875 -22.421875 L 36.1875 -26.703125 C 36.1875 -33.796875 32.878906 -37.34375 26.265625 -37.34375 L 21.0625 -37.34375 Z M 21.0625 -11.78125 "/></g></g></g><g fill="#fdd54f" fill-opacity="1"><g transform="translate(639.839245, 111.694239)"><g><path d="M 23.765625 -38.546875 C 30.671875 -38.546875 35.941406 -36.925781 39.578125 -33.6875 C 43.222656 -30.457031 45.046875 -25.507812 45.046875 -18.84375 L 45.046875 -16.421875 L 16.78125 -16.421875 C 16.78125 -13.703125 17.382812 -11.648438 18.59375 -10.265625 C 19.8125 -8.890625 21.726562 -8.203125 24.34375 -8.203125 C 26.71875 -8.203125 28.460938 -8.703125 29.578125 -9.703125 C 30.703125 -10.703125 31.265625 -12.035156 31.265625 -13.703125 L 45.046875 -13.703125 C 45.046875 -9.140625 43.304688 -5.570312 39.828125 -3 C 36.359375 -0.425781 31.289062 0.859375 24.625 0.859375 C 17.632812 0.859375 12.207031 -0.769531 8.34375 -4.03125 C 4.488281 -7.289062 2.5625 -12.226562 2.5625 -18.84375 C 2.5625 -25.320312 4.441406 -30.222656 8.203125 -33.546875 C 11.960938 -36.878906 17.148438 -38.546875 23.765625 -38.546875 Z M 24.34375 -29.484375 C 19.875 -29.484375 17.375 -27.363281 16.84375 -23.125 L 30.703125 -23.125 C 30.703125 -25.082031 30.140625 -26.628906 29.015625 -27.765625 C 27.898438 -28.910156 26.34375 -29.484375 24.34375 -29.484375 Z M 24.34375 -29.484375 "/></g></g></g><g fill="#fdd54f" fill-opacity="1"><g transform="translate(687.447301, 111.694239)"><g><path d="M 14.28125 0 L 0 -37.6875 L 15.28125 -37.6875 L 22.203125 -14.203125 L 22.703125 -14.203125 L 29.625 -37.6875 L 43.625 -37.6875 L 29.203125 0 Z M 14.28125 0 "/></g></g></g><g fill="#ffffff" fill-opacity="1"><g transform="translate(328.493547, 211.189287)"><g><path d="M 29.703125 -49.96875 C 38.171875 -49.96875 44.710938 -47.800781 49.328125 -43.46875 C 53.941406 -39.144531 56.25 -32.84375 56.25 -24.5625 C 56.25 -16.28125 53.941406 -9.972656 49.328125 -5.640625 C 44.710938 -1.304688 38.171875 0.859375 29.703125 0.859375 C 21.222656 0.859375 14.6875 -1.289062 10.09375 -5.59375 C 5.507812 -9.90625 3.21875 -16.226562 3.21875 -24.5625 C 3.21875 -32.882812 5.507812 -39.195312 10.09375 -43.5 C 14.6875 -47.8125 21.222656 -49.96875 29.703125 -49.96875 Z M 29.703125 -38.1875 C 26.316406 -38.1875 23.742188 -37.160156 21.984375 -35.109375 C 20.222656 -33.066406 19.34375 -30.3125 19.34375 -26.84375 L 19.34375 -22.28125 C 19.34375 -18.800781 20.222656 -16.035156 21.984375 -13.984375 C 23.742188 -11.941406 26.316406 -10.921875 29.703125 -10.921875 C 33.078125 -10.921875 35.65625 -11.941406 37.4375 -13.984375 C 39.226562 -16.035156 40.125 -18.800781 40.125 -22.28125 L 40.125 -26.84375 C 40.125 -30.3125 39.226562 -33.066406 37.4375 -35.109375 C 35.65625 -37.160156 33.078125 -38.1875 29.703125 -38.1875 Z M 29.703125 -38.1875 "/></g></g></g><g fill="#ffffff" fill-opacity="1"><g transform="translate(387.950084, 211.189287)"><g><path d="M 29.125 -38.546875 C 34.21875 -38.546875 38.144531 -36.878906 40.90625 -33.546875 C 43.664062 -30.222656 45.046875 -25.300781 45.046875 -18.78125 C 45.046875 -12.300781 43.664062 -7.40625 40.90625 -4.09375 C 38.144531 -0.789062 34.21875 0.859375 29.125 0.859375 C 24.75 0.859375 21.226562 -0.566406 18.5625 -3.421875 L 18.5625 14.0625 L 4.359375 14.0625 L 4.359375 -37.6875 L 15.921875 -37.6875 L 17.140625 -32.34375 C 19.898438 -36.476562 23.894531 -38.546875 29.125 -38.546875 Z M 24.703125 -28.0625 C 22.609375 -28.0625 21.035156 -27.320312 19.984375 -25.84375 C 18.941406 -24.363281 18.421875 -22.4375 18.421875 -20.0625 L 18.421875 -17.703125 C 18.421875 -15.328125 18.941406 -13.390625 19.984375 -11.890625 C 21.035156 -10.390625 22.609375 -9.640625 24.703125 -9.640625 C 28.796875 -9.640625 30.84375 -12.085938 30.84375 -16.984375 L 30.84375 -20.78125 C 30.84375 -25.632812 28.796875 -28.0625 24.703125 -28.0625 Z M 24.703125 -28.0625 "/></g></g></g><g fill="#ffffff" fill-opacity="1"><g transform="translate(435.558139, 211.189287)"><g><path d="M 23.765625 -38.546875 C 30.671875 -38.546875 35.941406 -36.925781 39.578125 -33.6875 C 43.222656 -30.457031 45.046875 -25.507812 45.046875 -18.84375 L 45.046875 -16.421875 L 16.78125 -16.421875 C 16.78125 -13.703125 17.382812 -11.648438 18.59375 -10.265625 C 19.8125 -8.890625 21.726562 -8.203125 24.34375 -8.203125 C 26.71875 -8.203125 28.460938 -8.703125 29.578125 -9.703125 C 30.703125 -10.703125 31.265625 -12.035156 31.265625 -13.703125 L 45.046875 -13.703125 C 45.046875 -9.140625 43.304688 -5.570312 39.828125 -3 C 36.359375 -0.425781 31.289062 0.859375 24.625 0.859375 C 17.632812 0.859375 12.207031 -0.769531 8.34375 -4.03125 C 4.488281 -7.289062 2.5625 -12.226562 2.5625 -18.84375 C 2.5625 -25.320312 4.441406 -30.222656 8.203125 -33.546875 C 11.960938 -36.878906 17.148438 -38.546875 23.765625 -38.546875 Z M 24.34375 -29.484375 C 19.875 -29.484375 17.375 -27.363281 16.84375 -23.125 L 30.703125 -23.125 C 30.703125 -25.082031 30.140625 -26.628906 29.015625 -27.765625 C 27.898438 -28.910156 26.34375 -29.484375 24.34375 -29.484375 Z M 24.34375 -29.484375 "/></g></g></g><g fill="#ffffff" fill-opacity="1"><g transform="translate(483.166195, 211.189287)"><g><path d="M 30.265625 -38.546875 C 34.648438 -38.546875 37.9375 -37.332031 40.125 -34.90625 C 42.3125 -32.476562 43.40625 -28.984375 43.40625 -24.421875 L 43.40625 0 L 29.203125 0 L 29.203125 -22.703125 C 29.203125 -24.316406 28.785156 -25.613281 27.953125 -26.59375 C 27.117188 -27.570312 25.941406 -28.0625 24.421875 -28.0625 C 22.660156 -28.0625 21.226562 -27.488281 20.125 -26.34375 C 19.03125 -25.195312 18.484375 -23.789062 18.484375 -22.125 L 18.484375 0 L 4.28125 0 L 4.28125 -37.6875 L 15.921875 -37.6875 L 16.84375 -31.984375 C 18.320312 -33.984375 20.257812 -35.578125 22.65625 -36.765625 C 25.0625 -37.953125 27.597656 -38.546875 30.265625 -38.546875 Z M 30.265625 -38.546875 "/></g></g></g><g fill="#ffffff" fill-opacity="1"><g transform="translate(530.77425, 211.189287)"><g><path d="M 22.203125 -38.546875 C 27.242188 -38.546875 31.515625 -37.554688 35.015625 -35.578125 C 38.515625 -33.609375 40.265625 -30.554688 40.265625 -26.421875 L 27.0625 -26.421875 C 27.0625 -27.796875 26.441406 -28.769531 25.203125 -29.34375 C 24.347656 -29.820312 23.273438 -30.0625 21.984375 -30.0625 C 18.554688 -30.0625 16.84375 -29.25 16.84375 -27.625 C 16.84375 -26.71875 17.4375 -26.070312 18.625 -25.6875 C 19.820312 -25.3125 21.773438 -24.910156 24.484375 -24.484375 C 27.816406 -24.003906 30.597656 -23.441406 32.828125 -22.796875 C 35.066406 -22.160156 37.019531 -21.019531 38.6875 -19.375 C 40.351562 -17.738281 41.1875 -15.445312 41.1875 -12.5 C 41.1875 -7.6875 39.390625 -4.253906 35.796875 -2.203125 C 32.203125 -0.160156 27.503906 0.859375 21.703125 0.859375 C 18.367188 0.859375 15.226562 0.394531 12.28125 -0.53125 C 9.332031 -1.457031 6.925781 -2.894531 5.0625 -4.84375 C 3.207031 -6.800781 2.28125 -9.28125 2.28125 -12.28125 L 15.484375 -12.28125 L 15.484375 -12 C 15.535156 -10.375 16.210938 -9.238281 17.515625 -8.59375 C 18.828125 -7.957031 20.222656 -7.640625 21.703125 -7.640625 C 25.648438 -7.640625 27.625 -8.566406 27.625 -10.421875 C 27.625 -11.367188 27.003906 -12.054688 25.765625 -12.484375 C 24.535156 -12.921875 22.515625 -13.375 19.703125 -13.84375 C 16.328125 -14.414062 13.554688 -15.035156 11.390625 -15.703125 C 9.222656 -16.367188 7.328125 -17.5 5.703125 -19.09375 C 4.085938 -20.6875 3.28125 -22.910156 3.28125 -25.765625 C 3.28125 -30.390625 5.03125 -33.675781 8.53125 -35.625 C 12.03125 -37.570312 16.585938 -38.546875 22.203125 -38.546875 Z M 22.203125 -38.546875 "/></g></g></g><g fill="#ffffff" fill-opacity="1"><g transform="translate(574.385243, 211.189287)"><g><path d="M 23.765625 -38.546875 C 30.390625 -38.546875 35.59375 -36.867188 39.375 -33.515625 C 43.15625 -30.160156 45.046875 -25.269531 45.046875 -18.84375 C 45.046875 -12.414062 43.15625 -7.523438 39.375 -4.171875 C 35.59375 -0.816406 30.390625 0.859375 23.765625 0.859375 C 17.148438 0.859375 11.960938 -0.804688 8.203125 -4.140625 C 4.441406 -7.472656 2.5625 -12.375 2.5625 -18.84375 C 2.5625 -25.320312 4.441406 -30.222656 8.203125 -33.546875 C 11.960938 -36.878906 17.148438 -38.546875 23.765625 -38.546875 Z M 23.765625 -28.90625 C 19.109375 -28.90625 16.78125 -26.21875 16.78125 -20.84375 L 16.78125 -16.78125 C 16.78125 -11.445312 19.109375 -8.78125 23.765625 -8.78125 C 28.484375 -8.78125 30.84375 -11.445312 30.84375 -16.78125 L 30.84375 -20.84375 C 30.84375 -26.21875 28.484375 -28.90625 23.765625 -28.90625 Z M 23.765625 -28.90625 "/></g></g></g><g fill="#ffffff" fill-opacity="1"><g transform="translate(621.993298, 211.189287)"><g><path d="M 31.625 0 L 30.703125 -5.71875 C 29.222656 -3.664062 27.28125 -2.054688 24.875 -0.890625 C 22.476562 0.273438 19.945312 0.859375 17.28125 0.859375 C 12.894531 0.859375 9.609375 -0.351562 7.421875 -2.78125 C 5.234375 -5.207031 4.140625 -8.707031 4.140625 -13.28125 L 4.140625 -37.6875 L 18.34375 -37.6875 L 18.34375 -14.984375 C 18.34375 -13.367188 18.757812 -12.070312 19.59375 -11.09375 C 20.425781 -10.125 21.601562 -9.640625 23.125 -9.640625 C 24.882812 -9.640625 26.3125 -10.207031 27.40625 -11.34375 C 28.507812 -12.488281 29.0625 -13.894531 29.0625 -15.5625 L 29.0625 -37.6875 L 43.265625 -37.6875 L 43.265625 0 Z M 31.625 0 "/></g></g></g><g fill="#ffffff" fill-opacity="1"><g transform="translate(669.601354, 211.189287)"><g><path d="M 27.203125 -38.625 C 28.296875 -38.625 29.269531 -38.492188 30.125 -38.234375 C 30.976562 -37.972656 31.40625 -37.816406 31.40625 -37.765625 L 31.40625 -25.84375 L 26.84375 -25.84375 C 23.894531 -25.84375 21.765625 -25.082031 20.453125 -23.5625 C 19.140625 -22.039062 18.484375 -19.78125 18.484375 -16.78125 L 18.484375 0 L 4.28125 0 L 4.28125 -37.6875 L 15.921875 -37.6875 L 16.84375 -31.984375 C 17.707031 -34.171875 19.066406 -35.820312 20.921875 -36.9375 C 22.773438 -38.0625 24.867188 -38.625 27.203125 -38.625 Z M 27.203125 -38.625 "/></g></g></g><g fill="#ffffff" fill-opacity="1"><g transform="translate(701.292488, 211.189287)"><g><path d="M 23.765625 -38.546875 C 29.953125 -38.546875 34.960938 -37.222656 38.796875 -34.578125 C 42.628906 -31.941406 44.546875 -27.910156 44.546875 -22.484375 L 30.765625 -22.484375 C 30.765625 -26.765625 28.429688 -28.90625 23.765625 -28.90625 C 19.109375 -28.90625 16.78125 -26.21875 16.78125 -20.84375 L 16.78125 -16.78125 C 16.78125 -11.445312 19.207031 -8.78125 24.0625 -8.78125 C 28.914062 -8.78125 31.34375 -10.96875 31.34375 -15.34375 L 44.546875 -15.34375 C 44.546875 -9.875 42.628906 -5.804688 38.796875 -3.140625 C 34.960938 -0.472656 29.953125 0.859375 23.765625 0.859375 C 17.148438 0.859375 11.960938 -0.804688 8.203125 -4.140625 C 4.441406 -7.472656 2.5625 -12.375 2.5625 -18.84375 C 2.5625 -25.320312 4.441406 -30.222656 8.203125 -33.546875 C 11.960938 -36.878906 17.148438 -38.546875 23.765625 -38.546875 Z M 23.765625 -38.546875 "/></g></g></g><g fill="#ffffff" fill-opacity="1"><g transform="translate(748.900544, 211.189287)"><g><path d="M 23.765625 -38.546875 C 30.671875 -38.546875 35.941406 -36.925781 39.578125 -33.6875 C 43.222656 -30.457031 45.046875 -25.507812 45.046875 -18.84375 L 45.046875 -16.421875 L 16.78125 -16.421875 C 16.78125 -13.703125 17.382812 -11.648438 18.59375 -10.265625 C 19.8125 -8.890625 21.726562 -8.203125 24.34375 -8.203125 C 26.71875 -8.203125 28.460938 -8.703125 29.578125 -9.703125 C 30.703125 -10.703125 31.265625 -12.035156 31.265625 -13.703125 L 45.046875 -13.703125 C 45.046875 -9.140625 43.304688 -5.570312 39.828125 -3 C 36.359375 -0.425781 31.289062 0.859375 24.625 0.859375 C 17.632812 0.859375 12.207031 -0.769531 8.34375 -4.03125 C 4.488281 -7.289062 2.5625 -12.226562 2.5625 -18.84375 C 2.5625 -25.320312 4.441406 -30.222656 8.203125 -33.546875 C 11.960938 -36.878906 17.148438 -38.546875 23.765625 -38.546875 Z M 24.34375 -29.484375 C 19.875 -29.484375 17.375 -27.363281 16.84375 -23.125 L 30.703125 -23.125 C 30.703125 -25.082031 30.140625 -26.628906 29.015625 -27.765625 C 27.898438 -28.910156 26.34375 -29.484375 24.34375 -29.484375 Z M 24.34375 -29.484375 "/></g></g></g><g fill="#ffffff" fill-opacity="1"><g transform="translate(225.420428, 310.684336)"><g><path d="M 37.984375 -49.109375 C 40.453125 -49.109375 42.722656 -48.597656 44.796875 -47.578125 C 46.867188 -46.554688 48.507812 -45.117188 49.71875 -43.265625 C 50.9375 -41.410156 51.546875 -39.335938 51.546875 -37.046875 C 51.546875 -31.003906 48.804688 -27.195312 43.328125 -25.625 L 43.328125 -25.34375 C 49.566406 -23.914062 52.6875 -19.820312 52.6875 -13.0625 C 52.6875 -10.488281 52.054688 -8.210938 50.796875 -6.234375 C 49.535156 -4.265625 47.804688 -2.734375 45.609375 -1.640625 C 43.421875 -0.546875 41.019531 0 38.40625 0 L 5.28125 0 L 5.28125 -49.109375 Z M 21.0625 -29.984375 L 31.90625 -29.984375 C 32.957031 -29.984375 33.828125 -30.351562 34.515625 -31.09375 C 35.203125 -31.832031 35.546875 -32.75 35.546875 -33.84375 L 35.546875 -34.546875 C 35.546875 -35.597656 35.1875 -36.492188 34.46875 -37.234375 C 33.757812 -37.972656 32.90625 -38.34375 31.90625 -38.34375 L 21.0625 -38.34375 Z M 21.0625 -11.421875 L 33.046875 -11.421875 C 34.097656 -11.421875 34.96875 -11.789062 35.65625 -12.53125 C 36.34375 -13.269531 36.6875 -14.1875 36.6875 -15.28125 L 36.6875 -15.984375 C 36.6875 -17.085938 36.34375 -18.003906 35.65625 -18.734375 C 34.96875 -19.472656 34.097656 -19.84375 33.046875 -19.84375 L 21.0625 -19.84375 Z M 21.0625 -11.421875 "/></g></g></g><g fill="#ffffff" fill-opacity="1"><g transform="translate(280.951255, 310.684336)"><g><path d="M 31.625 0 L 30.703125 -5.71875 C 29.222656 -3.664062 27.28125 -2.054688 24.875 -0.890625 C 22.476562 0.273438 19.945312 0.859375 17.28125 0.859375 C 12.894531 0.859375 9.609375 -0.351562 7.421875 -2.78125 C 5.234375 -5.207031 4.140625 -8.707031 4.140625 -13.28125 L 4.140625 -37.6875 L 18.34375 -37.6875 L 18.34375 -14.984375 C 18.34375 -13.367188 18.757812 -12.070312 19.59375 -11.09375 C 20.425781 -10.125 21.601562 -9.640625 23.125 -9.640625 C 24.882812 -9.640625 26.3125 -10.207031 27.40625 -11.34375 C 28.507812 -12.488281 29.0625 -13.894531 29.0625 -15.5625 L 29.0625 -37.6875 L 43.265625 -37.6875 L 43.265625 0 Z M 31.625 0 "/></g></g></g><g fill="#ffffff" fill-opacity="1"><g transform="translate(328.559311, 310.684336)"><g><path d="M 4.78125 -42.125 L 4.78125 -51.765625 L 18.984375 -51.765625 L 18.984375 -42.125 Z M 4.78125 0 L 4.78125 -37.6875 L 18.984375 -37.6875 L 18.984375 0 Z M 4.78125 0 "/></g></g></g><g fill="#ffffff" fill-opacity="1"><g transform="translate(352.32765, 310.684336)"><g><path d="M 4.78125 0 L 4.78125 -51.765625 L 18.984375 -51.765625 L 18.984375 0 Z M 4.78125 0 "/></g></g></g><g fill="#ffffff" fill-opacity="1"><g transform="translate(376.095989, 310.684336)"><g><path d="M 31.703125 0 L 30.484375 -5.359375 C 27.722656 -1.210938 23.722656 0.859375 18.484375 0.859375 C 13.390625 0.859375 9.460938 -0.804688 6.703125 -4.140625 C 3.941406 -7.472656 2.5625 -12.398438 2.5625 -18.921875 C 2.5625 -25.390625 3.941406 -30.273438 6.703125 -33.578125 C 9.460938 -36.890625 13.390625 -38.546875 18.484375 -38.546875 C 22.816406 -38.546875 26.34375 -37.097656 29.0625 -34.203125 L 29.0625 -51.765625 L 43.265625 -51.765625 L 43.265625 0 Z M 22.921875 -28.0625 C 18.828125 -28.0625 16.78125 -25.609375 16.78125 -20.703125 L 16.78125 -16.921875 C 16.78125 -12.066406 18.828125 -9.640625 22.921875 -9.640625 C 25.015625 -9.640625 26.582031 -10.375 27.625 -11.84375 C 28.675781 -13.320312 29.203125 -15.253906 29.203125 -17.640625 L 29.203125 -19.984375 C 29.203125 -22.367188 28.675781 -24.3125 27.625 -25.8125 C 26.582031 -27.3125 25.015625 -28.0625 22.921875 -28.0625 Z M 22.921875 -28.0625 "/></g></g></g><g fill="#ffffff" fill-opacity="1"><g transform="translate(423.704044, 310.684336)"><g><path d="M 4.78125 -42.125 L 4.78125 -51.765625 L 18.984375 -51.765625 L 18.984375 -42.125 Z M 4.78125 0 L 4.78125 -37.6875 L 18.984375 -37.6875 L 18.984375 0 Z M 4.78125 0 "/></g></g></g><g fill="#ffffff" fill-opacity="1"><g transform="translate(447.472383, 310.684336)"><g><path d="M 30.265625 -38.546875 C 34.648438 -38.546875 37.9375 -37.332031 40.125 -34.90625 C 42.3125 -32.476562 43.40625 -28.984375 43.40625 -24.421875 L 43.40625 0 L 29.203125 0 L 29.203125 -22.703125 C 29.203125 -24.316406 28.785156 -25.613281 27.953125 -26.59375 C 27.117188 -27.570312 25.941406 -28.0625 24.421875 -28.0625 C 22.660156 -28.0625 21.226562 -27.488281 20.125 -26.34375 C 19.03125 -25.195312 18.484375 -23.789062 18.484375 -22.125 L 18.484375 0 L 4.28125 0 L 4.28125 -37.6875 L 15.921875 -37.6875 L 16.84375 -31.984375 C 18.320312 -33.984375 20.257812 -35.578125 22.65625 -36.765625 C 25.0625 -37.953125 27.597656 -38.546875 30.265625 -38.546875 Z M 30.265625 -38.546875 "/></g></g></g><g fill="#ffffff" fill-opacity="1"><g transform="translate(495.080439, 310.684336)"><g><path d="M 46.6875 -44.765625 C 46.6875 -41.859375 45.957031 -39.617188 44.5 -38.046875 C 43.050781 -36.484375 40.878906 -35.316406 37.984375 -34.546875 C 39.359375 -33.503906 40.4375 -32.28125 41.21875 -30.875 C 42.007812 -29.46875 42.40625 -27.984375 42.40625 -26.421875 C 42.40625 -22.421875 40.894531 -19.394531 37.875 -17.34375 C 34.851562 -15.300781 31.082031 -14.28125 26.5625 -14.28125 L 21.125 -14.28125 C 18.132812 -14.28125 16.640625 -13.585938 16.640625 -12.203125 C 16.640625 -11.535156 16.972656 -11 17.640625 -10.59375 C 18.304688 -10.195312 19.46875 -10 21.125 -10 L 33.984375 -10 C 38.171875 -10 41.332031 -8.898438 43.46875 -6.703125 C 45.613281 -4.515625 46.6875 -1.585938 46.6875 2.078125 C 46.6875 4.785156 45.972656 7.113281 44.546875 9.0625 C 43.117188 11.019531 41.191406 12.492188 38.765625 13.484375 C 36.335938 14.484375 33.695312 14.984375 30.84375 14.984375 L 9.859375 14.984375 C 8.140625 14.984375 6.550781 14.578125 5.09375 13.765625 C 3.644531 12.960938 2.492188 11.859375 1.640625 10.453125 C 0.785156 9.054688 0.359375 7.5 0.359375 5.78125 C 0.359375 3.925781 0.925781 2.25 2.0625 0.75 C 3.207031 -0.75 4.640625 -1.878906 6.359375 -2.640625 C 5.210938 -3.453125 4.304688 -4.425781 3.640625 -5.5625 C 2.972656 -6.707031 2.640625 -7.945312 2.640625 -9.28125 C 2.640625 -11.132812 3.328125 -12.8125 4.703125 -14.3125 C 6.085938 -15.8125 7.804688 -16.820312 9.859375 -17.34375 C 7.992188 -18.53125 6.515625 -19.894531 5.421875 -21.4375 C 4.328125 -22.988281 3.78125 -24.625 3.78125 -26.34375 C 3.78125 -30.71875 5.550781 -33.84375 9.09375 -35.71875 C 12.644531 -37.601562 17.347656 -38.546875 23.203125 -38.546875 C 25.773438 -38.546875 27.84375 -38.40625 29.40625 -38.125 C 31.738281 -39.59375 33.25 -40.9375 33.9375 -42.15625 C 34.632812 -43.375 34.984375 -44.242188 34.984375 -44.765625 Z M 23.0625 -31.125 C 21.488281 -31.125 20.203125 -30.71875 19.203125 -29.90625 C 18.203125 -29.101562 17.703125 -27.941406 17.703125 -26.421875 C 17.703125 -24.847656 18.164062 -23.664062 19.09375 -22.875 C 20.019531 -22.09375 21.34375 -21.703125 23.0625 -21.703125 C 24.769531 -21.703125 26.113281 -22.09375 27.09375 -22.875 C 28.070312 -23.664062 28.5625 -24.847656 28.5625 -26.421875 C 28.5625 -27.984375 28.070312 -29.15625 27.09375 -29.9375 C 26.113281 -30.726562 24.769531 -31.125 23.0625 -31.125 Z M 17.5625 0 C 16.46875 0 15.570312 0.296875 14.875 0.890625 C 14.1875 1.484375 13.84375 2.328125 13.84375 3.421875 C 13.84375 4.515625 14.195312 5.394531 14.90625 6.0625 C 15.625 6.726562 16.507812 7.0625 17.5625 7.0625 L 28.703125 7.0625 C 29.742188 7.0625 30.632812 6.738281 31.375 6.09375 C 32.113281 5.457031 32.484375 4.59375 32.484375 3.5 C 32.484375 2.40625 32.125 1.546875 31.40625 0.921875 C 30.695312 0.304688 29.796875 0 28.703125 0 Z M 17.5625 0 "/></g></g></g><g fill="#ffffff" fill-opacity="1"><g transform="translate(542.688494, 310.684336)"><g/></g></g><g fill="#ffffff" fill-opacity="1"><g transform="translate(566.456833, 310.684336)"><g><path d="M 4.78125 -42.125 L 4.78125 -51.765625 L 18.984375 -51.765625 L 18.984375 -42.125 Z M 4.78125 0 L 4.78125 -37.6875 L 18.984375 -37.6875 L 18.984375 0 Z M 4.78125 0 "/></g></g></g><g fill="#ffffff" fill-opacity="1"><g transform="translate(590.225172, 310.684336)"><g><path d="M 30.265625 -38.546875 C 34.648438 -38.546875 37.9375 -37.332031 40.125 -34.90625 C 42.3125 -32.476562 43.40625 -28.984375 43.40625 -24.421875 L 43.40625 0 L 29.203125 0 L 29.203125 -22.703125 C 29.203125 -24.316406 28.785156 -25.613281 27.953125 -26.59375 C 27.117188 -27.570312 25.941406 -28.0625 24.421875 -28.0625 C 22.660156 -28.0625 21.226562 -27.488281 20.125 -26.34375 C 19.03125 -25.195312 18.484375 -23.789062 18.484375 -22.125 L 18.484375 0 L 4.28125 0 L 4.28125 -37.6875 L 15.921875 -37.6875 L 16.84375 -31.984375 C 18.320312 -33.984375 20.257812 -35.578125 22.65625 -36.765625 C 25.0625 -37.953125 27.597656 -38.546875 30.265625 -38.546875 Z M 30.265625 -38.546875 "/></g></g></g><g fill="#ffffff" fill-opacity="1"><g transform="translate(637.833204, 310.684336)"><g/></g></g><g fill="#ffffff" fill-opacity="1"><g transform="translate(661.601543, 310.684336)"><g><path d="M 29.125 -38.546875 C 34.21875 -38.546875 38.144531 -36.878906 40.90625 -33.546875 C 43.664062 -30.222656 45.046875 -25.300781 45.046875 -18.78125 C 45.046875 -12.300781 43.664062 -7.40625 40.90625 -4.09375 C 38.144531 -0.789062 34.21875 0.859375 29.125 0.859375 C 24.75 0.859375 21.226562 -0.566406 18.5625 -3.421875 L 18.5625 14.0625 L 4.359375 14.0625 L 4.359375 -37.6875 L 15.921875 -37.6875 L 17.140625 -32.34375 C 19.898438 -36.476562 23.894531 -38.546875 29.125 -38.546875 Z M 24.703125 -28.0625 C 22.609375 -28.0625 21.035156 -27.320312 19.984375 -25.84375 C 18.941406 -24.363281 18.421875 -22.4375 18.421875 -20.0625 L 18.421875 -17.703125 C 18.421875 -15.328125 18.941406 -13.390625 19.984375 -11.890625 C 21.035156 -10.390625 22.609375 -9.640625 24.703125 -9.640625 C 28.796875 -9.640625 30.84375 -12.085938 30.84375 -16.984375 L 30.84375 -20.78125 C 30.84375 -25.632812 28.796875 -28.0625 24.703125 -28.0625 Z M 24.703125 -28.0625 "/></g></g></g><g fill="#ffffff" fill-opacity="1"><g transform="translate(709.209599, 310.684336)"><g><path d="M 31.625 0 L 30.703125 -5.71875 C 29.222656 -3.664062 27.28125 -2.054688 24.875 -0.890625 C 22.476562 0.273438 19.945312 0.859375 17.28125 0.859375 C 12.894531 0.859375 9.609375 -0.351562 7.421875 -2.78125 C 5.234375 -5.207031 4.140625 -8.707031 4.140625 -13.28125 L 4.140625 -37.6875 L 18.34375 -37.6875 L 18.34375 -14.984375 C 18.34375 -13.367188 18.757812 -12.070312 19.59375 -11.09375 C 20.425781 -10.125 21.601562 -9.640625 23.125 -9.640625 C 24.882812 -9.640625 26.3125 -10.207031 27.40625 -11.34375 C 28.507812 -12.488281 29.0625 -13.894531 29.0625 -15.5625 L 29.0625 -37.6875 L 43.265625 -37.6875 L 43.265625 0 Z M 31.625 0 "/></g></g></g><g fill="#ffffff" fill-opacity="1"><g transform="translate(756.817654, 310.684336)"><g><path d="M 18.5625 -34.203125 C 21.269531 -37.097656 24.789062 -38.546875 29.125 -38.546875 C 34.21875 -38.546875 38.144531 -36.890625 40.90625 -33.578125 C 43.664062 -30.273438 45.046875 -25.390625 45.046875 -18.921875 C 45.046875 -12.398438 43.664062 -7.472656 40.90625 -4.140625 C 38.144531 -0.804688 34.21875 0.859375 29.125 0.859375 C 23.894531 0.859375 19.898438 -1.210938 17.140625 -5.359375 L 15.921875 0 L 4.359375 0 L 4.359375 -51.765625 L 18.5625 -51.765625 Z M 24.703125 -28.0625 C 22.609375 -28.0625 21.035156 -27.3125 19.984375 -25.8125 C 18.941406 -24.3125 18.421875 -22.367188 18.421875 -19.984375 L 18.421875 -17.640625 C 18.421875 -15.253906 18.941406 -13.320312 19.984375 -11.84375 C 21.035156 -10.375 22.609375 -9.640625 24.703125 -9.640625 C 28.796875 -9.640625 30.84375 -12.066406 30.84375 -16.921875 L 30.84375 -20.703125 C 30.84375 -25.609375 28.796875 -28.0625 24.703125 -28.0625 Z M 24.703125 -28.0625 "/></g></g></g><g fill="#ffffff" fill-opacity="1"><g transform="translate(804.42571, 310.684336)"><g><path d="M 4.78125 0 L 4.78125 -51.765625 L 18.984375 -51.765625 L 18.984375 0 Z M 4.78125 0 "/></g></g></g><g fill="#ffffff" fill-opacity="1"><g transform="translate(828.194049, 310.684336)"><g><path d="M 4.78125 -42.125 L 4.78125 -51.765625 L 18.984375 -51.765625 L 18.984375 -42.125 Z M 4.78125 0 L 4.78125 -37.6875 L 18.984375 -37.6875 L 18.984375 0 Z M 4.78125 0 "/></g></g></g><g fill="#ffffff" fill-opacity="1"><g transform="translate(851.962388, 310.684336)"><g><path d="M 23.765625 -38.546875 C 29.953125 -38.546875 34.960938 -37.222656 38.796875 -34.578125 C 42.628906 -31.941406 44.546875 -27.910156 44.546875 -22.484375 L 30.765625 -22.484375 C 30.765625 -26.765625 28.429688 -28.90625 23.765625 -28.90625 C 19.109375 -28.90625 16.78125 -26.21875 16.78125 -20.84375 L 16.78125 -16.78125 C 16.78125 -11.445312 19.207031 -8.78125 24.0625 -8.78125 C 28.914062 -8.78125 31.34375 -10.96875 31.34375 -15.34375 L 44.546875 -15.34375 C 44.546875 -9.875 42.628906 -5.804688 38.796875 -3.140625 C 34.960938 -0.472656 29.953125 0.859375 23.765625 0.859375 C 17.148438 0.859375 11.960938 -0.804688 8.203125 -4.140625 C 4.441406 -7.472656 2.5625 -12.375 2.5625 -18.84375 C 2.5625 -25.320312 4.441406 -30.222656 8.203125 -33.546875 C 11.960938 -36.878906 17.148438 -38.546875 23.765625 -38.546875 Z M 23.765625 -38.546875 "/></g></g></g></svg>